<?xml version="1.0" encoding="UTF-8"?>
<!DOCTYPE svg PUBLIC "-//W3C//DTD SVG 1.1//EN" "http://www.w3.org/Graphics/SVG/1.1/DTD/svg11.dtd">
<svg xmlns="http://www.w3.org/2000/svg" version="1.1" width="1152px" height="1280px" style="shape-rendering:geometricPrecision; text-rendering:geometricPrecision; image-rendering:optimizeQuality; fill-rule:evenodd; clip-rule:evenodd" xmlns:xlink="http://www.w3.org/1999/xlink">
<g><path style="opacity:1" fill="#fefefe" d="M -0.5,-0.5 C 383.5,-0.5 767.5,-0.5 1151.5,-0.5C 1151.5,426.167 1151.5,852.833 1151.5,1279.5C 767.5,1279.5 383.5,1279.5 -0.5,1279.5C -0.5,852.833 -0.5,426.167 -0.5,-0.5 Z"/></g>
<g><path style="opacity:1" fill="#0eb819" d="M 579.5,5.5 C 588.199,45.3293 595.866,85.3293 602.5,125.5C 590.848,126.666 579.181,126.833 567.5,126C 566.57,124.806 565.903,123.473 565.5,122C 570.784,83.2267 575.451,44.3933 579.5,5.5 Z"/></g>
<g><path style="opacity:1" fill="#0cb71a" d="M 702.5,31.5 C 703.586,31.62 704.253,32.2867 704.5,33.5C 695.621,72.1337 686.954,110.8 678.5,149.5C 668.887,146.351 659.553,142.518 650.5,138C 649.196,137.196 648.529,136.029 648.5,134.5C 663.474,105.219 678.974,76.2191 695,47.5C 697.741,42.2655 700.241,36.9322 702.5,31.5 Z"/></g>
<g><path style="opacity:1" fill="#0bbb19" d="M 457.5,43.5 C 479.965,72.3347 501.632,101.835 522.5,132C 522.241,133.261 521.574,134.261 520.5,135C 512.279,138.61 503.946,141.943 495.5,145C 493.559,145.743 491.726,145.576 490,144.5C 478.445,111.003 467.611,77.3364 457.5,43.5 Z"/></g>
<g><path style="opacity:1" fill="#0abc16" d="M 824.5,96.5 C 825.552,96.3505 826.552,96.5172 827.5,97C 797.578,132.291 767.744,167.791 738,203.5C 729,191.833 718.667,181.5 707,172.5C 707.606,169.54 709.439,167.373 712.5,166C 750.368,143.573 787.701,120.406 824.5,96.5 Z"/></g>
<g><path style="opacity:1" fill="#0db31a" d="M 348.5,105.5 C 380.69,130.428 412.69,155.595 444.5,181C 438.833,187.333 433.167,193.667 427.5,200C 426.833,200.667 426.167,200.667 425.5,200C 399.219,168.897 373.552,137.397 348.5,105.5 Z"/></g>
<g><path style="opacity:1" fill="#79c879" d="M 594.5,217.5 C 580.784,217.202 567.118,217.535 553.5,218.5C 553.611,217.883 553.944,217.383 554.5,217C 568.006,216.173 581.34,216.34 594.5,217.5 Z"/></g>
<g><path style="opacity:1" fill="#01be12" d="M 594.5,217.5 C 594.333,241.169 594.5,264.836 595,288.5C 595.837,290.351 596.671,292.184 597.5,294C 625.863,294.808 654.197,294.642 682.5,293.5C 683.582,295.339 684.415,297.339 685,299.5C 685.555,305.829 686.055,312.162 686.5,318.5C 686.517,323.142 685.85,327.642 684.5,332C 679.248,333.088 673.914,333.588 668.5,333.5C 644.767,332.305 621.1,332.305 597.5,333.5C 596.508,333.328 595.842,333.662 595.5,334.5C 594.667,399.332 594.167,464.332 594,529.5C 592.043,532.442 589.21,533.775 585.5,533.5C 575.5,533.5 565.5,533.5 555.5,533.5C 555.167,533.5 554.833,533.5 554.5,533.5C 554.832,467.331 554.499,401.331 553.5,335.5C 553.082,334.778 552.416,334.278 551.5,334C 524.835,333.5 498.169,333.333 471.5,333.5C 470.538,320.883 470.205,308.216 470.5,295.5C 496.094,294.676 521.761,294.176 547.5,294C 549.925,293.707 551.758,292.541 553,290.5C 553.5,266.502 553.667,242.502 553.5,218.5C 567.118,217.535 580.784,217.202 594.5,217.5 Z"/></g>
<g><path style="opacity:1" fill="#0cb71a" d="M 290.5,217.5 C 327.692,224.809 365.026,232.809 402.5,241.5C 399.964,250.773 396.631,259.773 392.5,268.5C 390.926,269.631 389.259,269.798 387.5,269C 355.162,251.831 322.829,234.665 290.5,217.5 Z"/></g>
<g><path style="opacity:1" fill="#0bb919" d="M 877.5,217.5 C 878.873,217.343 880.207,217.51 881.5,218C 848.332,238.416 815.332,259.083 782.5,280C 779.222,281.809 775.889,283.309 772.5,284.5C 769.012,271.548 765.679,258.548 762.5,245.5C 801.051,236.612 839.384,227.278 877.5,217.5 Z"/></g>
<g><path style="opacity:1" fill="#9dcea2" d="M 470.5,295.5 C 470.205,308.216 470.538,320.883 471.5,333.5C 470.883,333.389 470.383,333.056 470,332.5C 469.173,319.993 469.34,307.66 470.5,295.5 Z"/></g>
<g><path style="opacity:1" fill="#06b817" d="M 893.5,331.5 C 896.167,332.167 898.833,332.833 901.5,333.5C 858.192,342.962 814.859,352.295 771.5,361.5C 772.98,348.515 774.313,335.515 775.5,322.5C 814.824,325.61 854.158,328.61 893.5,331.5 Z"/></g>
<g><path style="opacity:1" fill="#0fb61c" d="M 387.5,341.5 C 381.225,342.418 374.892,342.751 368.5,342.5C 348.93,339.81 329.263,338.31 309.5,338C 297.619,335.645 285.619,334.145 273.5,333.5C 273.5,332.833 273.5,332.167 273.5,331.5C 311.437,327.684 349.437,324.684 387.5,322.5C 387.5,328.833 387.5,335.167 387.5,341.5 Z"/></g>
<g><path style="opacity:1" fill="#02be13" d="M 304.5,564.5 C 309.544,564.827 314.544,564.494 319.5,563.5C 314.312,561.816 308.978,561.149 303.5,561.5C 249.958,552.905 200.625,533.405 155.5,503C 174.176,503.739 192.842,504.905 211.5,506.5C 213.607,507.468 215.941,507.802 218.5,507.5C 223.467,508.311 228.467,508.978 233.5,509.5C 233.5,508.5 233.5,507.5 233.5,506.5C 229.193,505.673 224.86,505.007 220.5,504.5C 218.039,503.469 215.373,502.802 212.5,502.5C 188.6,494.805 164.934,485.971 141.5,476C 122.608,465.727 104.942,453.727 88.5,440C 83.8333,434 79.1667,428 74.5,422C 82.9558,424.215 91.2891,427.049 99.5,430.5C 117.095,439.955 135.762,446.622 155.5,450.5C 158.687,451.806 162.02,451.806 165.5,450.5C 165.376,449.893 165.043,449.56 164.5,449.5C 142.181,441.175 121.181,430.508 101.5,417.5C 60.6592,385.395 29.1592,346.062 7,299.5C 14.8785,306.38 23.0452,312.88 31.5,319C 104.972,365.736 184.972,396.069 271.5,410C 296.167,413.333 320.834,416.667 345.5,420C 446.859,438.73 514.692,496.563 549,593.5C 554.76,609.426 558.426,625.76 560,642.5C 551.833,636.333 543.667,630.167 535.5,624C 516.601,614.252 496.934,606.252 476.5,600C 433.199,591.648 389.532,588.981 345.5,592C 327.894,590.51 310.561,587.51 293.5,583C 285.75,578.797 278.75,573.631 272.5,567.5C 273.025,566.808 273.692,566.308 274.5,566C 284.495,565.324 294.495,564.824 304.5,564.5 Z"/></g>
<g><path style="opacity:1" fill="#76bb7c" d="M 893.5,331.5 C 896.572,331.183 899.572,331.516 902.5,332.5C 902.376,333.107 902.043,333.44 901.5,333.5C 898.833,332.833 896.167,332.167 893.5,331.5 Z"/></g>
<g><path style="opacity:1" fill="#5a7760" d="M 273.5,331.5 C 273.5,332.167 273.5,332.833 273.5,333.5C 258.833,332.833 258.833,332.167 273.5,331.5 Z"/></g>
<g><path style="opacity:1" fill="#3e774c" d="M 682.5,293.5 C 684.167,293.5 685.833,293.5 687.5,293.5C 687.5,307.167 687.5,320.833 687.5,334.5C 657.329,334.831 627.329,334.498 597.5,333.5C 621.1,332.305 644.767,332.305 668.5,333.5C 673.914,333.588 679.248,333.088 684.5,332C 685.85,327.642 686.517,323.142 686.5,318.5C 686.055,312.162 685.555,305.829 685,299.5C 684.415,297.339 683.582,295.339 682.5,293.5 Z"/></g>
<g><path style="opacity:1" fill="#03bc14" d="M 1041.5,432.5 C 1023.46,442.182 1004.46,449.516 984.5,454.5C 1007.46,453.927 1029.46,448.927 1050.5,439.5C 1056.79,437.46 1062.95,435.127 1069,432.5C 1069.5,432.833 1070,433.167 1070.5,433.5C 1035.07,480.005 988.069,505.672 929.5,510.5C 921.933,510.748 922.266,511.415 930.5,512.5C 941.09,513.642 951.757,513.808 962.5,513C 974.903,510.849 987.237,508.849 999.5,507C 992.471,516.026 984.138,523.693 974.5,530C 962.974,536.1 951.307,541.6 939.5,546.5C 923.79,550.344 908.124,554.344 892.5,558.5C 883.56,560.206 874.56,561.539 865.5,562.5C 855.081,562.396 844.747,563.229 834.5,565C 833.663,566.011 833.33,567.178 833.5,568.5C 838.148,569.662 842.814,570.829 847.5,572C 852.489,572.499 857.489,572.666 862.5,572.5C 869.171,571.999 875.837,571.832 882.5,572C 879.936,575.617 876.603,578.284 872.5,580C 854.04,586.466 835.04,590.466 815.5,592C 782.816,593 750.15,594.334 717.5,596C 687.847,598.606 659.18,605.273 631.5,616C 616.687,622.492 603.187,630.992 591,641.5C 590.333,639.833 590.333,638.167 591,636.5C 604.143,601.548 620.476,568.215 640,536.5C 670.609,490.892 710.776,456.392 760.5,433C 780.615,424.243 801.615,418.91 823.5,417C 858.221,414.58 892.887,411.58 927.5,408C 996.918,397.763 1059.92,372.43 1116.5,332C 1127.02,323.967 1137.02,315.467 1146.5,306.5C 1129.55,350.344 1102.55,387.178 1065.5,417C 1057.59,422.424 1049.59,427.59 1041.5,432.5 Z"/></g>
<g><path style="opacity:1" fill="#92a88f" d="M 387.5,341.5 C 387.389,342.117 387.056,342.617 386.5,343C 380.319,343.819 374.319,343.653 368.5,342.5C 374.892,342.751 381.225,342.418 387.5,341.5 Z"/></g>
<g><path style="opacity:1" fill="#427d4d" d="M 553.5,335.5 C 554.499,401.331 554.832,467.331 554.5,533.5C 552.11,533.315 551.11,531.982 551.5,529.5C 552.156,464.68 552.823,400.014 553.5,335.5 Z"/></g>
<g><path style="opacity:1" fill="#216030" d="M 595.5,334.5 C 595.667,400.501 595.5,466.501 595,532.5C 592.519,534.314 589.685,534.98 586.5,534.5C 585.833,534.5 585.5,534.167 585.5,533.5C 589.21,533.775 592.043,532.442 594,529.5C 594.167,464.332 594.667,399.332 595.5,334.5 Z"/></g>
<g><path style="opacity:1" fill="#ecf1ec" d="M 101.5,417.5 C 121.181,430.508 142.181,441.175 164.5,449.5C 161.713,450.477 158.713,450.81 155.5,450.5C 135.762,446.622 117.095,439.955 99.5,430.5C 100.746,428.992 102.08,427.492 103.5,426C 100.833,424.667 100.833,423.333 103.5,422C 102.418,420.67 101.751,419.17 101.5,417.5 Z"/></g>
<g><path style="opacity:1" fill="#eaeee9" d="M 1041.5,432.5 C 1040.97,433.721 1040.31,434.887 1039.5,436C 1042.23,436.728 1044.9,436.562 1047.5,435.5C 1048.71,436.274 1048.71,437.107 1047.5,438C 1048.74,438.232 1049.74,438.732 1050.5,439.5C 1029.46,448.927 1007.46,453.927 984.5,454.5C 1004.46,449.516 1023.46,442.182 1041.5,432.5 Z"/></g>
<g><path style="opacity:1" fill="#7f8b77" d="M 164.5,449.5 C 165.043,449.56 165.376,449.893 165.5,450.5C 162.02,451.806 158.687,451.806 155.5,450.5C 158.713,450.81 161.713,450.477 164.5,449.5 Z"/></g>
<g><path style="opacity:1" fill="#7f9a81" d="M 212.5,502.5 C 215.373,502.802 218.039,503.469 220.5,504.5C 219.448,504.351 218.448,504.517 217.5,505C 218.252,505.671 218.586,506.504 218.5,507.5C 215.941,507.802 213.607,507.468 211.5,506.5C 213.429,506.769 215.095,506.269 216.5,505C 214.081,504.71 212.747,503.876 212.5,502.5 Z"/></g>
<g><path style="opacity:1" fill="#40694a" d="M 220.5,504.5 C 224.86,505.007 229.193,505.673 233.5,506.5C 233.5,507.5 233.5,508.5 233.5,509.5C 228.467,508.978 223.467,508.311 218.5,507.5C 218.586,506.504 218.252,505.671 217.5,505C 218.448,504.517 219.448,504.351 220.5,504.5 Z"/></g>
<g><path style="opacity:1" fill="#7a887d" d="M 929.5,510.5 C 929.833,511.167 930.167,511.833 930.5,512.5C 922.266,511.415 921.933,510.748 929.5,510.5 Z"/></g>
<g><path style="opacity:1" fill="#91a193" d="M 555.5,533.5 C 565.5,533.5 575.5,533.5 585.5,533.5C 585.5,534.167 585.833,534.5 586.5,534.5C 576.675,535.658 566.675,535.825 556.5,535C 555.944,534.617 555.611,534.117 555.5,533.5 Z"/></g>
<g><path style="opacity:1" fill="#58765d" d="M 939.5,546.5 C 935.344,548.612 931.011,550.445 926.5,552C 917.118,554.12 907.784,556.453 898.5,559C 896.288,559.789 894.288,559.622 892.5,558.5C 908.124,554.344 923.79,550.344 939.5,546.5 Z"/></g>
<g><path style="opacity:1" fill="#4a654c" d="M 303.5,561.5 C 308.978,561.149 314.312,561.816 319.5,563.5C 314.544,564.494 309.544,564.827 304.5,564.5C 303.571,563.685 302.571,562.852 301.5,562C 302.094,561.536 302.761,561.369 303.5,561.5 Z"/></g>
<g><path style="opacity:1" fill="#4d6c52" d="M 865.5,562.5 C 857.309,564.032 848.976,565.532 840.5,567C 847.734,569.712 855.068,571.545 862.5,572.5C 857.489,572.666 852.489,572.499 847.5,572C 842.814,570.829 838.148,569.662 833.5,568.5C 833.33,567.178 833.663,566.011 834.5,565C 844.747,563.229 855.081,562.396 865.5,562.5 Z"/></g>
<g><path style="opacity:1" fill="#01be12" d="M 569.5,690.5 C 565.363,692.25 563.03,695.417 562.5,700C 562.555,717.011 562.555,734.177 562.5,751.5C 562.529,793.34 561.862,835.007 560.5,876.5C 557.869,866.562 553.203,857.895 546.5,850.5C 545.5,849.5 544.5,848.5 543.5,847.5C 542.753,844.638 541.086,842.638 538.5,841.5C 534.878,839.213 531.545,836.547 528.5,833.5C 522.428,826.959 515.094,822.125 506.5,819C 488.372,812.641 469.705,808.974 450.5,808C 434.808,807.229 419.142,807.396 403.5,808.5C 398.586,808.362 393.919,809.028 389.5,810.5C 383.5,811.167 377.5,811.833 371.5,812.5C 364.794,812.448 358.128,812.948 351.5,814C 349.148,814.24 347.148,815.073 345.5,816.5C 341.958,816.187 338.625,816.521 335.5,817.5C 324.495,818.2 313.495,819.034 302.5,820C 288.46,822.834 274.46,825.001 260.5,826.5C 250.145,827.002 239.812,827.835 229.5,829C 227.942,829.21 226.609,829.71 225.5,830.5C 224.167,830.5 222.833,830.5 221.5,830.5C 214.011,829.344 206.345,829.178 198.5,830C 196.277,830.566 194.277,831.4 192.5,832.5C 189.5,832.5 186.5,832.5 183.5,832.5C 181.114,830.824 178.447,829.49 175.5,828.5C 172.817,829.51 170.151,830.51 167.5,831.5C 150.66,831.478 133.994,829.812 117.5,826.5C 102.271,821.318 87.6042,814.985 73.5,807.5C 73.5279,797.394 74.5279,787.394 76.5,777.5C 78.7956,769.078 80.4623,760.412 81.5,751.5C 86.2966,734.859 89.9633,717.859 92.5,700.5C 94.1924,693.693 95.5257,686.693 96.5,679.5C 96.5,679.167 96.5,678.833 96.5,678.5C 100.697,674.369 101.363,669.703 98.5,664.5C 95.6697,661.472 92.3364,660.805 88.5,662.5C 86.418,665.152 85.0846,668.152 84.5,671.5C 81.8476,672.475 79.5143,673.808 77.5,675.5C 76.5,675.833 75.8333,676.5 75.5,677.5C 73.1006,681.048 71.6006,685.048 71,689.5C 66.1987,690.192 61.3654,690.858 56.5,691.5C 54.7298,694.193 54.0632,697.193 54.5,700.5C 53.4233,706.312 52.7566,712.312 52.5,718.5C 51.6993,720.042 51.366,721.708 51.5,723.5C 45.6469,748.45 41.3135,773.783 38.5,799.5C 35.9093,812.787 33.5759,826.12 31.5,839.5C 29.3041,849.493 27.3041,859.659 25.5,870C 25.595,873.855 27.2616,876.855 30.5,879C 39.0818,883.471 48.0818,886.638 57.5,888.5C 66.823,892.253 76.4897,895.253 86.5,897.5C 97.9644,902.027 109.964,904.36 122.5,904.5C 151.664,905.664 180.997,905.83 210.5,905C 218.717,904.826 226.717,903.993 234.5,902.5C 249.197,901.275 263.864,899.942 278.5,898.5C 286.056,896.842 293.723,895.842 301.5,895.5C 319.007,893.48 336.34,891.146 353.5,888.5C 363.336,888.063 373.002,886.729 382.5,884.5C 383.708,883.766 385.041,883.433 386.5,883.5C 392.176,883.666 397.843,883.499 403.5,883C 406.797,882.796 409.797,881.963 412.5,880.5C 414.167,880.5 415.833,880.5 417.5,880.5C 433.156,879.783 448.823,879.45 464.5,879.5C 478.006,879.403 491.339,880.736 504.5,883.5C 517.543,886.958 530.543,890.625 543.5,894.5C 548.787,898.053 554.454,901.053 560.5,903.5C 562.167,905.5 563.833,907.5 565.5,909.5C 568.155,911.124 571.322,913.124 575,915.5C 578.254,914.409 580.754,912.409 582.5,909.5C 591.354,904.161 600.354,898.995 609.5,894C 619.53,891.16 629.53,888.327 639.5,885.5C 647.671,884.067 655.671,882.4 663.5,880.5C 665.5,880.5 667.5,880.5 669.5,880.5C 686.833,880.5 704.167,880.5 721.5,880.5C 723.5,880.5 725.5,880.5 727.5,880.5C 744.914,883.719 762.58,886.053 780.5,887.5C 794.828,889.256 809.162,891.756 823.5,895C 831.459,896.164 839.459,896.664 847.5,896.5C 849.435,897.15 851.435,897.483 853.5,897.5C 871.175,901.33 889.175,903.663 907.5,904.5C 916.648,905.656 925.981,906.323 935.5,906.5C 937.167,906.5 938.833,906.5 940.5,906.5C 946.617,907.879 952.95,908.546 959.5,908.5C 990.478,910.263 1021.14,908.597 1051.5,903.5C 1058.55,902.948 1065.22,901.281 1071.5,898.5C 1072.17,898.167 1072.83,897.833 1073.5,897.5C 1089.49,895.168 1104.49,890.001 1118.5,882C 1121.49,879.352 1123.16,876.019 1123.5,872C 1120.05,851.545 1116.89,831.045 1114,810.5C 1113.88,806.995 1112.71,803.995 1110.5,801.5C 1110.5,800.833 1110.5,800.167 1110.5,799.5C 1107.06,765.571 1101.89,731.904 1095,698.5C 1094.17,697.667 1093.33,696.833 1092.5,696C 1088.38,695.857 1084.38,695.19 1080.5,694C 1079.55,687.458 1076.88,681.792 1072.5,677C 1066.6,676.734 1063.77,673.567 1064,667.5C 1060.5,663.763 1056.83,663.763 1053,667.5C 1052.19,674.614 1053.36,681.281 1056.5,687.5C 1056.5,688.5 1056.5,689.5 1056.5,690.5C 1058.08,704.43 1060.41,718.096 1063.5,731.5C 1067.57,755.25 1072.07,778.917 1077,802.5C 1077.86,807.239 1076.7,811.406 1073.5,815C 1062.56,820.588 1051.23,825.088 1039.5,828.5C 1014.71,832.845 989.713,835.511 964.5,836.5C 962.833,836.5 961.167,836.5 959.5,836.5C 949.026,835.179 938.359,834.512 927.5,834.5C 918.746,834.066 910.08,833.066 901.5,831.5C 900.319,829.933 898.653,829.099 896.5,829C 872.791,826.078 849.124,822.911 825.5,819.5C 816.04,817.891 806.373,816.891 796.5,816.5C 794.194,816.007 791.861,815.674 789.5,815.5C 785.056,814.187 780.389,813.354 775.5,813C 762.836,812.056 750.169,811.222 737.5,810.5C 736.833,810.5 736.167,810.5 735.5,810.5C 716.788,807.744 698.121,808.078 679.5,811.5C 671.973,811.381 664.64,812.547 657.5,815C 650.309,818.064 642.975,820.73 635.5,823C 634.244,823.417 633.577,824.25 633.5,825.5C 632.833,826.167 632.167,826.833 631.5,827.5C 627.826,827.707 625.16,829.374 623.5,832.5C 622.448,832.351 621.448,832.517 620.5,833C 606.962,843.699 596.629,856.865 589.5,872.5C 587.67,814.842 586.836,756.842 587,698.5C 584.78,695.46 583.28,692.127 582.5,688.5C 594.933,666.567 611.933,649.067 633.5,636C 643.325,632.391 653.325,629.391 663.5,627C 686.485,625.587 709.485,625.254 732.5,626C 738.65,628.401 744.983,630.068 751.5,631C 789.846,637.573 828.179,644.24 866.5,651C 897.512,655.584 928.512,655.584 959.5,651C 978.583,646.792 996.583,639.792 1013.5,630C 1019.86,625.817 1025.86,621.15 1031.5,616C 1035.02,613.572 1037.85,614.072 1040,617.5C 1040.66,622.298 1041.82,626.965 1043.5,631.5C 1046.48,633.001 1049.65,634.001 1053,634.5C 1054.65,640.073 1055.99,645.739 1057,651.5C 1058.3,653.122 1059.8,654.455 1061.5,655.5C 1063.8,654.604 1066.13,654.438 1068.5,655C 1069.57,658.12 1070.57,661.287 1071.5,664.5C 1075.05,666.439 1078.55,668.439 1082,670.5C 1083.4,676.003 1085.23,681.336 1087.5,686.5C 1089.07,687.631 1090.74,687.798 1092.5,687C 1094.82,685.007 1097.48,683.841 1100.5,683.5C 1111.53,747.544 1121.86,811.71 1131.5,876C 1131.5,881.011 1129.34,884.844 1125,887.5C 1123.99,889.534 1123.49,891.7 1123.5,894C 1125.04,905.126 1126.04,916.293 1126.5,927.5C 970.194,928.329 813.861,928.829 657.5,929C 651.244,931.129 645.244,933.796 639.5,937C 593.475,969.465 548.475,968.132 504.5,933C 500.429,930.797 496.096,929.464 491.5,929C 336.156,928.657 180.822,927.324 25.5,925C 22.1829,923.196 20.8496,920.363 21.5,916.5C 23.0801,906.201 23.9135,895.868 24,885.5C 22.6667,882.833 20.6667,880.833 18,879.5C 17.2189,878.271 16.7189,876.938 16.5,875.5C 21.2613,839.266 27.4279,803.266 35,767.5C 39.2602,738.412 43.9269,709.412 49,680.5C 49.7247,679.941 50.5581,679.608 51.5,679.5C 54.5663,680.8 57.7329,681.8 61,682.5C 61.8333,682.167 62.6667,681.833 63.5,681.5C 66.2452,676.129 68.2452,670.463 69.5,664.5C 72.4973,663.752 75.4973,663.085 78.5,662.5C 80.2647,659.035 81.9313,655.535 83.5,652C 87.5151,651.626 91.0151,650.126 94,647.5C 95.6527,642.582 96.986,637.582 98,632.5C 100.908,630.975 104.074,629.975 107.5,629.5C 107.808,628.692 108.308,628.025 109,627.5C 110.429,621.617 111.929,615.784 113.5,610C 115.289,609.48 116.956,609.813 118.5,611C 146.714,633.929 179.047,647.262 215.5,651C 236.875,651.78 258.209,651.113 279.5,649C 312.773,644.39 345.773,638.39 378.5,631C 404.845,626.888 431.345,624.388 458,623.5C 477.169,623.534 495.669,627.034 513.5,634C 519.97,636.465 525.97,639.799 531.5,644C 541.667,652.833 551.167,662.333 560,672.5C 563.462,678.427 566.628,684.427 569.5,690.5 Z"/></g>
<g><path style="opacity:1" fill="#f9fbf9" d="M 96.5,678.5 C 96.5,678.833 96.5,679.167 96.5,679.5C 94.2034,685.205 92.5368,691.205 91.5,697.5C 87.7763,715.45 84.443,733.45 81.5,751.5C 80.4623,760.412 78.7956,769.078 76.5,777.5C 74.3907,784.952 72.724,792.619 71.5,800.5C 69.3999,805.476 70.7333,809.309 75.5,812C 88.3132,819.657 101.98,824.823 116.5,827.5C 133.123,831.567 150.123,833.234 167.5,832.5C 172.833,832.5 178.167,832.5 183.5,832.5C 186.5,832.5 189.5,832.5 192.5,832.5C 202.229,831.983 211.896,831.317 221.5,830.5C 222.833,830.5 224.167,830.5 225.5,830.5C 239.237,830.408 252.903,829.408 266.5,827.5C 289.536,823.59 312.536,820.257 335.5,817.5C 338.625,816.521 341.958,816.187 345.5,816.5C 348.85,816.665 352.183,816.498 355.5,816C 361.015,815.085 366.348,813.919 371.5,812.5C 377.5,811.833 383.5,811.167 389.5,810.5C 398.349,810.826 407.016,810.493 415.5,809.5C 447.742,807.929 479.076,812.429 509.5,823C 515.888,826.524 522.221,830.024 528.5,833.5C 531.545,836.547 534.878,839.213 538.5,841.5C 539.091,843.819 540.758,845.819 543.5,847.5C 544.5,848.5 545.5,849.5 546.5,850.5C 545.535,851.721 545.702,853.054 547,854.5C 551.526,862.23 556.026,869.896 560.5,877.5C 561.338,877.842 561.672,878.508 561.5,879.5C 562.928,887.046 564.595,894.546 566.5,902C 566.167,903.167 565.833,904.333 565.5,905.5C 563.925,904.544 562.258,903.877 560.5,903.5C 554.454,901.053 548.787,898.053 543.5,894.5C 542.251,892.864 540.584,891.697 538.5,891C 528.414,887.348 518.081,884.515 507.5,882.5C 506.274,882.52 505.274,882.853 504.5,883.5C 491.339,880.736 478.006,879.403 464.5,879.5C 458.175,878.834 451.675,878.5 445,878.5C 435.615,878.302 426.448,878.968 417.5,880.5C 415.833,880.5 414.167,880.5 412.5,880.5C 403.517,880.003 394.85,881.003 386.5,883.5C 385.041,883.433 383.708,883.766 382.5,884.5C 381.551,883.848 380.385,883.514 379,883.5C 368.814,884.756 358.648,886.089 348.5,887.5C 335.519,889.081 322.519,890.581 309.5,892C 306.401,892.387 303.734,893.554 301.5,895.5C 293.723,895.842 286.056,896.842 278.5,898.5C 263.228,897.795 247.894,898.795 232.5,901.5C 199.224,904.574 165.891,905.241 132.5,903.5C 125.2,902.773 117.867,902.273 110.5,902C 102.609,899.86 94.6088,898.36 86.5,897.5C 76.4897,895.253 66.823,892.253 57.5,888.5C 51.2872,885.45 44.2872,882.616 36.5,880C 30.45,878.034 27.7834,873.868 28.5,867.5C 30.1582,858.235 31.1582,848.901 31.5,839.5C 33.5759,826.12 35.9093,812.787 38.5,799.5C 44.1081,774.522 48.4414,749.188 51.5,723.5C 51.366,721.708 51.6993,720.042 52.5,718.5C 54.2453,714.8 55.2453,710.8 55.5,706.5C 56.1082,702.528 56.6082,698.528 57,694.5C 57.5,694 58,693.5 58.5,693C 61.9029,692.262 65.0696,692.762 68,694.5C 69.7106,694.561 71.044,693.894 72,692.5C 73.6382,687.614 74.8048,682.614 75.5,677.5C 75.8333,676.5 76.5,675.833 77.5,675.5C 84.0198,676.815 87.5198,674.148 88,667.5C 90.367,664.068 93.0337,663.735 96,666.5C 96.4988,670.486 96.6655,674.486 96.5,678.5 Z"/></g>
<g><path style="opacity:1" fill="#446d4d" d="M 96.5,678.5 C 96.6655,674.486 96.4988,670.486 96,666.5C 93.0337,663.735 90.367,664.068 88,667.5C 87.5198,674.148 84.0198,676.815 77.5,675.5C 79.5143,673.808 81.8476,672.475 84.5,671.5C 85.0846,668.152 86.418,665.152 88.5,662.5C 92.3364,660.805 95.6697,661.472 98.5,664.5C 101.363,669.703 100.697,674.369 96.5,678.5 Z"/></g>
<g><path style="opacity:1" fill="#fafbfa" d="M 1110.5,799.5 C 1110.5,800.167 1110.5,800.833 1110.5,801.5C 1112.57,820.568 1115.4,839.568 1119,858.5C 1119.67,865.167 1119.67,871.833 1119,878.5C 1115.92,881.293 1112.42,883.46 1108.5,885C 1096.56,888.701 1084.89,892.868 1073.5,897.5C 1072.83,897.833 1072.17,898.167 1071.5,898.5C 1063.84,899.832 1056.17,901.166 1048.5,902.5C 1019.01,906.928 989.345,908.594 959.5,907.5C 953.196,906.74 946.863,906.407 940.5,906.5C 938.833,906.5 937.167,906.5 935.5,906.5C 928.411,904.696 921.077,903.696 913.5,903.5C 897.287,902.874 881.287,900.708 865.5,897C 861.311,896.188 857.311,896.355 853.5,897.5C 851.435,897.483 849.435,897.15 847.5,896.5C 827.213,893.714 806.88,890.381 786.5,886.5C 766.894,883.914 747.227,881.914 727.5,880.5C 725.5,880.5 723.5,880.5 721.5,880.5C 720.048,879.698 718.382,879.198 716.5,879C 701.5,878.333 686.5,878.333 671.5,879C 670.584,879.278 669.918,879.778 669.5,880.5C 667.5,880.5 665.5,880.5 663.5,880.5C 654.262,881.098 645.262,882.431 636.5,884.5C 618.343,887.747 601.676,894.58 586.5,905C 585.207,905.49 583.873,905.657 582.5,905.5C 586.587,875.647 600.254,851.314 623.5,832.5C 626.671,831.564 629.338,829.897 631.5,827.5C 632.167,826.833 632.833,826.167 633.5,825.5C 633.56,826.043 633.893,826.376 634.5,826.5C 649.579,818.809 665.579,814.142 682.5,812.5C 700.106,810.718 717.773,810.051 735.5,810.5C 736.167,810.5 736.833,810.5 737.5,810.5C 754.649,812.598 771.982,814.264 789.5,815.5C 791.861,815.674 794.194,816.007 796.5,816.5C 803.623,818.223 810.957,819.557 818.5,820.5C 839.285,822.98 859.951,826.146 880.5,830C 887.518,830.376 894.518,830.876 901.5,831.5C 910.08,833.066 918.746,834.066 927.5,834.5C 937.954,836.143 948.621,836.81 959.5,836.5C 961.167,836.5 962.833,836.5 964.5,836.5C 990.182,838.262 1015.51,835.929 1040.5,829.5C 1051.27,826.523 1061.93,823.023 1072.5,819C 1078.16,814.845 1080.33,809.345 1079,802.5C 1074.02,777.479 1069.19,752.479 1064.5,727.5C 1062.58,714.885 1059.91,702.552 1056.5,690.5C 1056.5,689.5 1056.5,688.5 1056.5,687.5C 1055.76,681.488 1055.26,675.488 1055,669.5C 1057.14,668.231 1059.31,668.231 1061.5,669.5C 1062.23,673.461 1063.9,676.961 1066.5,680C 1069.43,680.218 1072.26,680.718 1075,681.5C 1076.12,686.801 1077.62,691.968 1079.5,697C 1083.83,697.333 1088.17,697.667 1092.5,698C 1093.13,698.75 1093.63,699.584 1094,700.5C 1099.3,733.658 1104.8,766.658 1110.5,799.5 Z"/></g>
<g><path style="opacity:1" fill="#768f7d" d="M 96.5,679.5 C 95.5257,686.693 94.1924,693.693 92.5,700.5C 92.7373,699.209 92.404,698.209 91.5,697.5C 92.5368,691.205 94.2034,685.205 96.5,679.5 Z"/></g>
<g><path style="opacity:1" fill="#96ad9c" d="M 581.5,689.5 C 581.492,692.545 581.159,695.545 580.5,698.5C 579.662,698.842 579.328,699.508 579.5,700.5C 578.176,701.85 577.176,701.683 576.5,700C 578.101,696.325 579.767,692.825 581.5,689.5 Z"/></g>
<g><path style="opacity:1" fill="#365f3e" d="M 75.5,677.5 C 74.8048,682.614 73.6382,687.614 72,692.5C 71.044,693.894 69.7106,694.561 68,694.5C 65.0696,692.762 61.9029,692.262 58.5,693C 58,693.5 57.5,694 57,694.5C 56.6082,698.528 56.1082,702.528 55.5,706.5C 54.5386,704.735 54.2053,702.735 54.5,700.5C 54.0632,697.193 54.7298,694.193 56.5,691.5C 61.3654,690.858 66.1987,690.192 71,689.5C 71.6006,685.048 73.1006,681.048 75.5,677.5 Z"/></g>
<g><path style="opacity:1" fill="#6f8c74" d="M 1056.5,690.5 C 1059.91,702.552 1062.58,714.885 1064.5,727.5C 1063.57,728.568 1063.23,729.901 1063.5,731.5C 1060.41,718.096 1058.08,704.43 1056.5,690.5 Z"/></g>
<g><path style="opacity:1" fill="#1d4429" d="M 76.5,696.5 C 77.647,700.646 77.8136,704.98 77,709.5C 76,710.167 75,710.833 74,711.5C 73.967,706.364 74.8004,701.364 76.5,696.5 Z"/></g>
<g><path style="opacity:1" fill="#496852" d="M 1075.5,711.5 C 1074.91,714.127 1074.58,716.794 1074.5,719.5C 1072.58,713.372 1072.24,707.038 1073.5,700.5C 1074.31,703.419 1075.31,706.252 1076.5,709C 1075.75,709.671 1075.41,710.504 1075.5,711.5 Z"/></g>
<g><path style="opacity:1" fill="#92ab92" d="M 54.5,700.5 C 54.2053,702.735 54.5386,704.735 55.5,706.5C 55.2453,710.8 54.2453,714.8 52.5,718.5C 52.7566,712.312 53.4233,706.312 54.5,700.5 Z"/></g>
<g><path style="opacity:1" fill="#10b91b" d="M 74.5,729.5 C 72.0021,734.775 70.6688,740.442 70.5,746.5C 69.5,745.833 68.5,745.167 67.5,744.5C 68.37,736.816 69.37,729.15 70.5,721.5C 71.0382,718.811 71.7049,716.144 72.5,713.5C 73.325,712.614 74.325,712.281 75.5,712.5C 75.3651,718.181 75.0318,723.848 74.5,729.5 Z"/></g>
<g><path style="opacity:1" fill="#88a38d" d="M 70.5,721.5 C 69.37,729.15 68.37,736.816 67.5,744.5C 66.3054,744.134 65.6387,743.301 65.5,742C 66.3587,734.848 68.0254,728.014 70.5,721.5 Z"/></g>
<g><path style="opacity:1" fill="#44674c" d="M 91.5,697.5 C 92.404,698.209 92.7373,699.209 92.5,700.5C 89.9633,717.859 86.2966,734.859 81.5,751.5C 84.443,733.45 87.7763,715.45 91.5,697.5 Z"/></g>
<g><path style="opacity:1" fill="#7a957c" d="M 74.5,729.5 C 73.8244,736.902 72.6578,744.235 71,751.5C 70.5065,749.866 70.3398,748.199 70.5,746.5C 70.6688,740.442 72.0021,734.775 74.5,729.5 Z"/></g>
<g><path style="opacity:1" fill="#6d8c71" d="M 1076.5,737.5 C 1079.22,747.248 1081.38,757.248 1083,767.5C 1083.23,766.263 1083.73,765.263 1084.5,764.5C 1084.56,766.884 1084.22,769.218 1083.5,771.5C 1083.75,773.073 1084.42,774.406 1085.5,775.5C 1084.6,776.209 1084.26,777.209 1084.5,778.5C 1080.12,765.304 1077.46,751.638 1076.5,737.5 Z"/></g>
<g><path style="opacity:1" fill="#94a798" d="M 579.5,719.5 C 579.83,735.675 579.496,751.675 578.5,767.5C 578.829,753.323 578.496,739.323 577.5,725.5C 577.595,723.214 578.262,721.214 579.5,719.5 Z"/></g>
<g><path style="opacity:1" fill="#14b91d" d="M 1075.5,711.5 C 1076.12,711.611 1076.62,711.944 1077,712.5C 1078.63,720.984 1080.46,729.317 1082.5,737.5C 1082.28,743.953 1083.62,749.953 1086.5,755.5C 1087.93,758.308 1088.6,761.308 1088.5,764.5C 1088.74,765.791 1088.4,766.791 1087.5,767.5C 1086.83,766.167 1085.83,765.167 1084.5,764.5C 1083.73,765.263 1083.23,766.263 1083,767.5C 1081.38,757.248 1079.22,747.248 1076.5,737.5C 1076.16,731.456 1075.49,725.456 1074.5,719.5C 1074.58,716.794 1074.91,714.127 1075.5,711.5 Z"/></g>
<g><path style="opacity:1" fill="#708a74" d="M 1082.5,737.5 C 1084.25,743.298 1085.58,749.298 1086.5,755.5C 1083.62,749.953 1082.28,743.953 1082.5,737.5 Z"/></g>
<g><path style="opacity:1" fill="#68c86b" d="M 580.5,698.5 C 581.326,761.459 581.826,824.459 582,887.5C 582.278,888.416 582.778,889.082 583.5,889.5C 582.637,891.421 581.971,893.421 581.5,895.5C 579.836,869.016 578.836,842.349 578.5,815.5C 578.5,807.5 578.5,799.5 578.5,791.5C 578.5,783.5 578.5,775.5 578.5,767.5C 579.496,751.675 579.83,735.675 579.5,719.5C 579.5,713.167 579.5,706.833 579.5,700.5C 579.328,699.508 579.662,698.842 580.5,698.5 Z"/></g>
<g><path style="opacity:1" fill="#5f8267" d="M 51.5,723.5 C 48.4414,749.188 44.1081,774.522 38.5,799.5C 41.3135,773.783 45.6469,748.45 51.5,723.5 Z"/></g>
<g><path style="opacity:1" fill="#507357" d="M 1110.5,799.5 C 1104.8,766.658 1099.3,733.658 1094,700.5C 1093.63,699.584 1093.13,698.75 1092.5,698C 1088.17,697.667 1083.83,697.333 1079.5,697C 1077.62,691.968 1076.12,686.801 1075,681.5C 1072.26,680.718 1069.43,680.218 1066.5,680C 1063.9,676.961 1062.23,673.461 1061.5,669.5C 1059.31,668.231 1057.14,668.231 1055,669.5C 1055.26,675.488 1055.76,681.488 1056.5,687.5C 1053.36,681.281 1052.19,674.614 1053,667.5C 1056.83,663.763 1060.5,663.763 1064,667.5C 1063.77,673.567 1066.6,676.734 1072.5,677C 1076.88,681.792 1079.55,687.458 1080.5,694C 1084.38,695.19 1088.38,695.857 1092.5,696C 1093.33,696.833 1094.17,697.667 1095,698.5C 1101.89,731.904 1107.06,765.571 1110.5,799.5 Z"/></g>
<g><path style="opacity:1" fill="#41c144" d="M 569.5,690.5 C 570.162,692.47 570.828,694.47 571.5,696.5C 570.513,714.787 570.18,733.12 570.5,751.5C 570.5,762.167 570.5,772.833 570.5,783.5C 569.934,822.177 568.934,860.844 567.5,899.5C 566.295,893.473 564.961,887.473 563.5,881.5C 563.832,837.997 563.499,794.663 562.5,751.5C 562.555,734.177 562.555,717.011 562.5,700C 563.03,695.417 565.363,692.25 569.5,690.5 Z"/></g>
<g><path style="opacity:1" fill="#f7fcf6" d="M 1084.5,764.5 C 1085.83,765.167 1086.83,766.167 1087.5,767.5C 1089.06,773.394 1090.06,779.394 1090.5,785.5C 1089.78,787.382 1088.78,787.715 1087.5,786.5C 1086.33,782.958 1085.66,779.291 1085.5,775.5C 1084.42,774.406 1083.75,773.073 1083.5,771.5C 1084.22,769.218 1084.56,766.884 1084.5,764.5 Z"/></g>
<g><path style="opacity:1" fill="#ade6b1" d="M 1088.5,764.5 C 1090.47,771.601 1091.8,778.935 1092.5,786.5C 1091.83,786.167 1091.17,785.833 1090.5,785.5C 1090.06,779.394 1089.06,773.394 1087.5,767.5C 1088.4,766.791 1088.74,765.791 1088.5,764.5 Z"/></g>
<g><path style="opacity:1" fill="#2fc135" d="M 582.5,688.5 C 583.28,692.127 584.78,695.46 587,698.5C 586.836,756.842 587.67,814.842 589.5,872.5C 587.348,878.106 585.348,883.772 583.5,889.5C 582.778,889.082 582.278,888.416 582,887.5C 581.826,824.459 581.326,761.459 580.5,698.5C 581.159,695.545 581.492,692.545 581.5,689.5C 581.5,688.833 581.833,688.5 582.5,688.5 Z"/></g>
<g><path style="opacity:1" fill="#627c69" d="M 571.5,863.5 C 570.502,837.005 570.169,810.339 570.5,783.5C 570.5,772.833 570.5,762.167 570.5,751.5C 571.222,751.082 571.722,750.416 572,749.5C 572.674,787.505 572.507,825.505 571.5,863.5 Z"/></g>
<g><path style="opacity:1" fill="#98df9f" d="M 1085.5,775.5 C 1085.66,779.291 1086.33,782.958 1087.5,786.5C 1086.66,786.842 1086.33,787.508 1086.5,788.5C 1085.22,785.411 1084.55,782.078 1084.5,778.5C 1084.26,777.209 1084.6,776.209 1085.5,775.5 Z"/></g>
<g><path style="opacity:1" fill="#6a7e6a" d="M 60.5,772.5 C 60.1666,778.599 60.5,783.932 61.5,788.5C 62.8333,790.5 62.8333,792.5 61.5,794.5C 60.0454,789.527 59.0454,784.527 58.5,779.5C 58.4095,776.848 59.0762,774.515 60.5,772.5 Z"/></g>
<g><path style="opacity:1" fill="#24be2b" d="M 60.5,772.5 C 62.1947,773.011 63.8614,773.678 65.5,774.5C 64.5403,779.315 63.207,783.982 61.5,788.5C 60.5,783.932 60.1666,778.599 60.5,772.5 Z"/></g>
<g><path style="opacity:1" fill="#899d8b" d="M 76.5,777.5 C 74.5279,787.394 73.5279,797.394 73.5,807.5C 72.8333,805.167 72.1667,802.833 71.5,800.5C 72.724,792.619 74.3907,784.952 76.5,777.5 Z"/></g>
<g><path style="opacity:1" fill="#57745b" d="M 577.5,725.5 C 578.496,739.323 578.829,753.323 578.5,767.5C 578.5,775.5 578.5,783.5 578.5,791.5C 577.833,794.167 577.167,796.833 576.5,799.5C 577.383,774.845 577.717,750.179 577.5,725.5 Z"/></g>
<g><path style="opacity:1" fill="#2abc2f" d="M 1090.5,785.5 C 1091.17,785.833 1091.83,786.167 1092.5,786.5C 1092.5,790.833 1092.5,795.167 1092.5,799.5C 1092.17,799.5 1091.83,799.5 1091.5,799.5C 1090.79,798.596 1089.79,798.263 1088.5,798.5C 1087.83,795.167 1087.17,791.833 1086.5,788.5C 1086.33,787.508 1086.66,786.842 1087.5,786.5C 1088.78,787.715 1089.78,787.382 1090.5,785.5 Z"/></g>
<g><path style="opacity:1" fill="#205431" d="M 58.5,779.5 C 59.0454,784.527 60.0454,789.527 61.5,794.5C 60.426,799.054 58.7594,803.388 56.5,807.5C 56.1897,798.194 56.8563,788.861 58.5,779.5 Z"/></g>
<g><path style="opacity:1" fill="#2a5d3a" d="M 1091.5,799.5 C 1091.83,799.5 1092.17,799.5 1092.5,799.5C 1092.78,800.289 1093.28,800.956 1094,801.5C 1096.09,821.246 1094.59,821.413 1089.5,802C 1089.68,800.624 1090.35,799.791 1091.5,799.5 Z"/></g>
<g><path style="opacity:1" fill="#396142" d="M 71.5,800.5 C 72.1667,802.833 72.8333,805.167 73.5,807.5C 87.6042,814.985 102.271,821.318 117.5,826.5C 117.5,827.167 117.167,827.5 116.5,827.5C 101.98,824.823 88.3132,819.657 75.5,812C 70.7333,809.309 69.3999,805.476 71.5,800.5 Z"/></g>
<g><path style="opacity:1" fill="#92a894" d="M 403.5,808.5 C 407.298,809.483 411.298,809.817 415.5,809.5C 407.016,810.493 398.349,810.826 389.5,810.5C 393.919,809.028 398.586,808.362 403.5,808.5 Z"/></g>
<g><path style="opacity:1" fill="#819c87" d="M 735.5,810.5 C 717.773,810.051 700.106,810.718 682.5,812.5C 681.791,811.596 680.791,811.263 679.5,811.5C 698.121,808.078 716.788,807.744 735.5,810.5 Z"/></g>
<g><path style="opacity:1" fill="#466e4f" d="M 528.5,833.5 C 522.221,830.024 515.888,826.524 509.5,823C 479.076,812.429 447.742,807.929 415.5,809.5C 411.298,809.817 407.298,809.483 403.5,808.5C 419.142,807.396 434.808,807.229 450.5,808C 469.705,808.974 488.372,812.641 506.5,819C 515.094,822.125 522.428,826.959 528.5,833.5 Z"/></g>
<g><path style="opacity:1" fill="#396042" d="M 679.5,811.5 C 680.791,811.263 681.791,811.596 682.5,812.5C 665.579,814.142 649.579,818.809 634.5,826.5C 633.893,826.376 633.56,826.043 633.5,825.5C 633.577,824.25 634.244,823.417 635.5,823C 642.975,820.73 650.309,818.064 657.5,815C 664.64,812.547 671.973,811.381 679.5,811.5 Z"/></g>
<g><path style="opacity:1" fill="#618164" d="M 371.5,812.5 C 366.348,813.919 361.015,815.085 355.5,816C 352.183,816.498 348.85,816.665 345.5,816.5C 347.148,815.073 349.148,814.24 351.5,814C 358.128,812.948 364.794,812.448 371.5,812.5 Z"/></g>
<g><path style="opacity:1" fill="#93a894" d="M 737.5,810.5 C 750.169,811.222 762.836,812.056 775.5,813C 780.389,813.354 785.056,814.187 789.5,815.5C 771.982,814.264 754.649,812.598 737.5,810.5 Z"/></g>
<g><path style="opacity:1" fill="#748f78" d="M 796.5,816.5 C 806.373,816.891 816.04,817.891 825.5,819.5C 822.941,819.198 820.607,819.532 818.5,820.5C 810.957,819.557 803.623,818.223 796.5,816.5 Z"/></g>
<g><path style="opacity:1" fill="#819a83" d="M 335.5,817.5 C 312.536,820.257 289.536,823.59 266.5,827.5C 264.735,826.539 262.735,826.205 260.5,826.5C 274.46,825.001 288.46,822.834 302.5,820C 313.495,819.034 324.495,818.2 335.5,817.5 Z"/></g>
<g><path style="opacity:1" fill="#416749" d="M 1064.5,727.5 C 1069.19,752.479 1074.02,777.479 1079,802.5C 1080.33,809.345 1078.16,814.845 1072.5,819C 1061.93,823.023 1051.27,826.523 1040.5,829.5C 1039.83,829.5 1039.5,829.167 1039.5,828.5C 1051.23,825.088 1062.56,820.588 1073.5,815C 1076.7,811.406 1077.86,807.239 1077,802.5C 1072.07,778.917 1067.57,755.25 1063.5,731.5C 1063.23,729.901 1063.57,728.568 1064.5,727.5 Z"/></g>
<g><path style="opacity:1" fill="#819685" d="M 444.5,823.5 C 430.829,823.333 417.163,823.5 403.5,824C 384.183,825.781 364.85,827.281 345.5,828.5C 348.675,827.571 352.009,826.738 355.5,826C 385.264,822.735 414.931,821.902 444.5,823.5 Z"/></g>
<g><path style="opacity:1" fill="#acc6af" d="M 448.5,823.5 C 457.192,824.003 465.858,824.836 474.5,826C 475.737,826.232 476.737,826.732 477.5,827.5C 467.623,826.725 457.957,825.392 448.5,823.5 Z"/></g>
<g><path style="opacity:1" fill="#93ae93" d="M 756.5,825.5 C 771.384,826.073 786.051,827.406 800.5,829.5C 785.601,829.125 770.934,827.792 756.5,825.5 Z"/></g>
<g><path style="opacity:1" fill="#2d5836" d="M 260.5,826.5 C 262.735,826.205 264.735,826.539 266.5,827.5C 252.903,829.408 239.237,830.408 225.5,830.5C 226.609,829.71 227.942,829.21 229.5,829C 239.812,827.835 250.145,827.002 260.5,826.5 Z"/></g>
<g><path style="opacity:1" fill="#406647" d="M 818.5,820.5 C 820.607,819.532 822.941,819.198 825.5,819.5C 849.124,822.911 872.791,826.078 896.5,829C 898.653,829.099 900.319,829.933 901.5,831.5C 894.518,830.876 887.518,830.376 880.5,830C 859.951,826.146 839.285,822.98 818.5,820.5 Z"/></g>
<g><path style="opacity:1" fill="#67806a" d="M 748.5,824.5 C 720.975,823.679 693.642,825.512 666.5,830C 658.048,832.207 649.714,834.707 641.5,837.5C 654.578,830.645 668.578,826.478 683.5,825C 705.31,823.27 726.976,823.103 748.5,824.5 Z"/></g>
<g><path style="opacity:1" fill="#79947a" d="M 221.5,830.5 C 211.896,831.317 202.229,831.983 192.5,832.5C 194.277,831.4 196.277,830.566 198.5,830C 206.345,829.178 214.011,829.344 221.5,830.5 Z"/></g>
<g><path style="opacity:1" fill="#55785f" d="M 631.5,827.5 C 629.338,829.897 626.671,831.564 623.5,832.5C 625.16,829.374 627.826,827.707 631.5,827.5 Z"/></g>
<g><path style="opacity:1" fill="#87a58a" d="M 117.5,826.5 C 133.994,829.812 150.66,831.478 167.5,831.5C 167.5,831.833 167.5,832.167 167.5,832.5C 150.123,833.234 133.123,831.567 116.5,827.5C 117.167,827.5 117.5,827.167 117.5,826.5 Z"/></g>
<g><path style="opacity:1" fill="#3b6041" d="M 183.5,832.5 C 178.167,832.5 172.833,832.5 167.5,832.5C 167.5,832.167 167.5,831.833 167.5,831.5C 170.151,830.51 172.817,829.51 175.5,828.5C 178.447,829.49 181.114,830.824 183.5,832.5 Z"/></g>
<g><path style="opacity:1" fill="#0fbb1a" d="M 444.5,823.5 C 445.833,823.5 447.167,823.5 448.5,823.5C 457.957,825.392 467.623,826.725 477.5,827.5C 500.271,831.722 520.604,841.055 538.5,855.5C 539.386,856.325 539.719,857.325 539.5,858.5C 537.345,858.628 535.345,858.128 533.5,857C 528.004,853.084 522.337,849.418 516.5,846C 483.02,831.603 448.02,826.27 411.5,830C 393.769,831.005 376.102,832.505 358.5,834.5C 337.988,836.105 317.655,838.772 297.5,842.5C 273.568,846.049 249.568,848.716 225.5,850.5C 210.163,850.68 194.829,851.013 179.5,851.5C 178.209,851.737 177.209,851.404 176.5,850.5C 177.683,849.496 179.016,848.662 180.5,848C 187.013,847.828 193.347,847.328 199.5,846.5C 208.557,846.434 217.557,845.767 226.5,844.5C 234.717,844.14 242.717,843.14 250.5,841.5C 282.27,837.812 313.937,833.478 345.5,828.5C 364.85,827.281 384.183,825.781 403.5,824C 417.163,823.5 430.829,823.333 444.5,823.5 Z"/></g>
<g><path style="opacity:1" fill="#879e8c" d="M 806.5,830.5 C 827.788,832.564 848.788,835.564 869.5,839.5C 868.508,839.328 867.842,839.662 867.5,840.5C 846.953,837.686 826.62,834.353 806.5,830.5 Z"/></g>
<g><path style="opacity:1" fill="#607f64" d="M 1039.5,828.5 C 1039.5,829.167 1039.83,829.5 1040.5,829.5C 1015.51,835.929 990.182,838.262 964.5,836.5C 989.713,835.511 1014.71,832.845 1039.5,828.5 Z"/></g>
<g><path style="opacity:1" fill="#a6cba7" d="M 927.5,834.5 C 938.359,834.512 949.026,835.179 959.5,836.5C 948.621,836.81 937.954,836.143 927.5,834.5 Z"/></g>
<g><path style="opacity:1" fill="#47664d" d="M 358.5,834.5 C 344.053,837.454 329.386,839.954 314.5,842C 309.816,842.35 305.149,842.85 300.5,843.5C 299.274,843.48 298.274,843.147 297.5,842.5C 317.655,838.772 337.988,836.105 358.5,834.5 Z"/></g>
<g><path style="opacity:1" fill="#95ab96" d="M 250.5,841.5 C 242.717,843.14 234.717,844.14 226.5,844.5C 234.187,842.082 242.187,841.082 250.5,841.5 Z"/></g>
<g><path style="opacity:1" fill="#65c866" d="M 562.5,751.5 C 563.499,794.663 563.832,837.997 563.5,881.5C 562.833,880.833 562.167,880.167 561.5,879.5C 561.672,878.508 561.338,877.842 560.5,877.5C 560.5,877.167 560.5,876.833 560.5,876.5C 561.862,835.007 562.529,793.34 562.5,751.5 Z"/></g>
<g><path style="opacity:1" fill="#5a7c5f" d="M 867.5,840.5 C 867.842,839.662 868.508,839.328 869.5,839.5C 885.071,841.177 900.404,843.511 915.5,846.5C 899.262,846.275 883.262,844.275 867.5,840.5 Z"/></g>
<g><path style="opacity:1" fill="#88988a" d="M 411.5,843.5 C 426.328,842.339 441.328,842.172 456.5,843C 461.047,843.429 465.381,844.262 469.5,845.5C 468.833,845.5 468.5,845.833 468.5,846.5C 456.259,844.687 443.926,844.02 431.5,844.5C 425.021,843.509 418.354,843.176 411.5,843.5 Z"/></g>
<g><path style="opacity:1" fill="#517356" d="M 538.5,841.5 C 541.086,842.638 542.753,844.638 543.5,847.5C 540.758,845.819 539.091,843.819 538.5,841.5 Z"/></g>
<g><path style="opacity:1" fill="#0ebb1a" d="M 748.5,824.5 C 750.948,825.473 753.615,825.806 756.5,825.5C 770.934,827.792 785.601,829.125 800.5,829.5C 802.379,830.341 804.379,830.675 806.5,830.5C 826.62,834.353 846.953,837.686 867.5,840.5C 883.262,844.275 899.262,846.275 915.5,846.5C 918.482,846.963 921.482,847.296 924.5,847.5C 930.294,848.785 936.294,849.618 942.5,850C 960.697,850.046 978.697,850.879 996.5,852.5C 995.078,852.709 993.745,853.209 992.5,854C 978.837,854.5 965.171,854.667 951.5,854.5C 928.362,851.94 905.029,849.94 881.5,848.5C 880.833,848.5 880.167,848.5 879.5,848.5C 874.801,846.577 869.801,845.41 864.5,845C 831.179,840.668 797.846,836.502 764.5,832.5C 754.901,831.046 745.234,830.379 735.5,830.5C 722.34,829.34 709.006,829.173 695.5,830C 687.949,830.689 680.616,831.856 673.5,833.5C 663.749,833.443 654.749,835.776 646.5,840.5C 639.635,843.119 632.968,846.119 626.5,849.5C 622.327,850.837 618.494,852.837 615,855.5C 614.536,854.906 614.369,854.239 614.5,853.5C 618.928,850.184 623.261,846.684 627.5,843C 632.595,842.028 637.262,840.195 641.5,837.5C 649.714,834.707 658.048,832.207 666.5,830C 693.642,825.512 720.975,823.679 748.5,824.5 Z"/></g>
<g><path style="opacity:1" fill="#718d76" d="M 764.5,832.5 C 797.846,836.502 831.179,840.668 864.5,845C 869.801,845.41 874.801,846.577 879.5,848.5C 840.89,844.549 802.557,839.549 764.5,833.5C 764.5,833.167 764.5,832.833 764.5,832.5 Z"/></g>
<g><path style="opacity:1" fill="#708773" d="M 673.5,833.5 C 664.613,835.933 655.613,838.266 646.5,840.5C 654.749,835.776 663.749,833.443 673.5,833.5 Z"/></g>
<g><path style="opacity:1" fill="#41714f" d="M 716.5,831.5 C 722.645,830.51 728.978,830.177 735.5,830.5C 745.234,830.379 754.901,831.046 764.5,832.5C 764.5,832.833 764.5,833.167 764.5,833.5C 748.49,832.976 732.49,832.309 716.5,831.5 Z"/></g>
<g><path style="opacity:1" fill="#7a977b" d="M 735.5,830.5 C 728.978,830.177 722.645,830.51 716.5,831.5C 711.474,831.589 706.474,831.255 701.5,830.5C 692.243,832.16 682.91,833.16 673.5,833.5C 680.616,831.856 687.949,830.689 695.5,830C 709.006,829.173 722.34,829.34 735.5,830.5 Z"/></g>
<g><path style="opacity:1" fill="#80a47f" d="M 411.5,843.5 C 418.354,843.176 425.021,843.509 431.5,844.5C 409.131,844.183 386.797,844.849 364.5,846.5C 370.573,844.852 376.907,844.019 383.5,844C 392.827,843.5 402.161,843.334 411.5,843.5 Z"/></g>
<g><path style="opacity:1" fill="#849b84" d="M 759.5,846.5 C 736.844,845.462 714.177,845.296 691.5,846C 687.082,846.208 682.749,846.874 678.5,848C 684.157,848.499 689.824,848.666 695.5,848.5C 703.5,849.167 711.5,849.833 719.5,850.5C 708.167,850.5 696.833,850.5 685.5,850.5C 681.812,849.238 677.978,849.238 674,850.5C 673.5,850.167 673,849.833 672.5,849.5C 673.602,848.824 674.602,848.158 675.5,847.5C 675.611,846.883 675.944,846.383 676.5,846C 704.497,842.567 732.163,842.734 759.5,846.5 Z"/></g>
<g><path style="opacity:1" fill="#0fbb1a" d="M 431.5,844.5 C 443.926,844.02 456.259,844.687 468.5,846.5C 469.506,846.938 469.506,847.604 468.5,848.5C 440.049,846.518 411.716,847.518 383.5,851.5C 373.981,851.677 364.648,852.344 355.5,853.5C 346.062,854.184 336.729,855.518 327.5,857.5C 322.651,858.216 317.985,859.216 313.5,860.5C 291.545,863.604 269.545,866.271 247.5,868.5C 221.854,870.374 196.188,871.707 170.5,872.5C 166.833,872.5 163.167,872.5 159.5,872.5C 149.699,871.095 139.699,870.428 129.5,870.5C 128.833,870.5 128.167,870.5 127.5,870.5C 120.847,868.915 114.013,867.582 107,866.5C 106.5,866.167 106,865.833 105.5,865.5C 107.743,864.526 110.076,864.192 112.5,864.5C 118.511,865.073 124.511,865.74 130.5,866.5C 139.114,868.024 147.947,868.691 157,868.5C 163.343,868.5 169.509,868.166 175.5,867.5C 186.166,867.067 196.833,866.567 207.5,866C 232.12,862.809 256.787,859.642 281.5,856.5C 291.799,856.396 301.799,855.062 311.5,852.5C 312.5,852.5 313.5,852.5 314.5,852.5C 322.369,851.999 330.036,850.999 337.5,849.5C 346.523,848.754 355.523,847.754 364.5,846.5C 386.797,844.849 409.131,844.183 431.5,844.5 Z"/></g>
<g><path style="opacity:1" fill="#1f5230" d="M 468.5,846.5 C 468.5,845.833 468.833,845.5 469.5,845.5C 477.366,845.956 484.699,848.123 491.5,852C 483.631,851.561 475.965,850.394 468.5,848.5C 469.506,847.604 469.506,846.938 468.5,846.5 Z"/></g>
<g><path style="opacity:1" fill="#5c7862" d="M 199.5,846.5 C 193.347,847.328 187.013,847.828 180.5,848C 179.016,848.662 177.683,849.496 176.5,850.5C 174.473,850.662 172.473,850.495 170.5,850C 172.635,848.619 174.968,847.619 177.5,847C 184.826,846.5 192.159,846.334 199.5,846.5 Z"/></g>
<g><path style="opacity:1" fill="#2a5a38" d="M 695.5,848.5 C 715.235,847.987 734.902,848.654 754.5,850.5C 753.081,851.451 751.415,851.784 749.5,851.5C 739.512,850.887 729.512,850.553 719.5,850.5C 711.5,849.833 703.5,849.167 695.5,848.5 Z"/></g>
<g><path style="opacity:1" fill="#809683" d="M 337.5,849.5 C 330.036,850.999 322.369,851.999 314.5,852.5C 316.562,851.224 318.896,850.39 321.5,850C 326.823,849.501 332.156,849.334 337.5,849.5 Z"/></g>
<g><path style="opacity:1" fill="#759179" d="M 774.5,847.5 C 787.715,848.118 800.715,849.451 813.5,851.5C 812.209,851.263 811.209,851.596 810.5,852.5C 798.298,851.31 786.298,849.643 774.5,847.5 Z"/></g>
<g><path style="opacity:1" fill="#718975" d="M 924.5,847.5 C 951.65,848.709 978.65,849.709 1005.5,850.5C 1002.25,850.207 999.246,850.874 996.5,852.5C 978.697,850.879 960.697,850.046 942.5,850C 936.294,849.618 930.294,848.785 924.5,847.5 Z"/></g>
<g><path style="opacity:1" fill="#1b4e2b" d="M 675.5,847.5 C 674.602,848.158 673.602,848.824 672.5,849.5C 673,849.833 673.5,850.167 674,850.5C 677.978,849.238 681.812,849.238 685.5,850.5C 676.522,851.628 667.522,852.128 658.5,852C 663.522,848.423 669.189,846.923 675.5,847.5 Z"/></g>
<g><path style="opacity:1" fill="#1e522e" d="M 1005.5,850.5 C 1005.94,850.435 1006.27,850.601 1006.5,851C 1003.56,852.045 1000.56,852.879 997.5,853.5C 996.893,853.376 996.56,853.043 996.5,852.5C 999.246,850.874 1002.25,850.207 1005.5,850.5 Z"/></g>
<g><path style="opacity:1" fill="#7b9f80" d="M 225.5,850.5 C 210.189,852.404 194.856,852.737 179.5,851.5C 194.829,851.013 210.163,850.68 225.5,850.5 Z"/></g>
<g><path style="opacity:1" fill="#80a37f" d="M 383.5,851.5 C 377.589,852.259 371.589,853.259 365.5,854.5C 362.375,853.521 359.042,853.187 355.5,853.5C 364.648,852.344 373.981,851.677 383.5,851.5 Z"/></g>
<g><path style="opacity:1" fill="#1c5d36" d="M 578.5,791.5 C 578.5,799.5 578.5,807.5 578.5,815.5C 578.667,840.169 578.5,864.836 578,889.5C 577.333,894.833 576.667,900.167 576,905.5C 575.764,907.119 574.931,908.119 573.5,908.5C 572.833,908.5 572.5,908.167 572.5,907.5C 572.183,903.298 572.517,899.298 573.5,895.5C 573.215,897.288 573.548,898.955 574.5,900.5C 576.02,895.294 576.853,889.961 577,884.5C 577.764,856.154 577.597,827.82 576.5,799.5C 577.167,796.833 577.833,794.167 578.5,791.5 Z"/></g>
<g><path style="opacity:1" fill="#7c917f" d="M 881.5,848.5 C 905.029,849.94 928.362,851.94 951.5,854.5C 927.835,854.681 904.502,852.681 881.5,848.5 Z"/></g>
<g><path style="opacity:1" fill="#7a8d7b" d="M 311.5,852.5 C 301.799,855.062 291.799,856.396 281.5,856.5C 291.21,853.971 301.21,852.638 311.5,852.5 Z"/></g>
<g><path style="opacity:1" fill="#335b3e" d="M 355.5,853.5 C 359.042,853.187 362.375,853.521 365.5,854.5C 353.851,855.898 342.184,857.232 330.5,858.5C 329.209,858.737 328.209,858.404 327.5,857.5C 336.729,855.518 346.062,854.184 355.5,853.5 Z"/></g>
<g><path style="opacity:1" fill="#396140" d="M 810.5,852.5 C 811.209,851.596 812.209,851.263 813.5,851.5C 838.574,853.381 863.241,857.048 887.5,862.5C 861.853,859.086 836.186,855.752 810.5,852.5 Z"/></g>
<g><path style="opacity:1" fill="#829983" d="M 754.5,850.5 C 772.532,852.337 790.532,854.504 808.5,857C 811.191,857.156 813.524,857.989 815.5,859.5C 793.41,856.454 771.41,853.788 749.5,851.5C 751.415,851.784 753.081,851.451 754.5,850.5 Z"/></g>
<g><path style="opacity:1" fill="#355c41" d="M 626.5,849.5 C 620.151,854.498 613.485,859.165 606.5,863.5C 605.417,862.635 605.251,861.635 606,860.5C 608.436,857.553 611.269,855.22 614.5,853.5C 614.369,854.239 614.536,854.906 615,855.5C 618.494,852.837 622.327,850.837 626.5,849.5 Z"/></g>
<g><path style="opacity:1" fill="#9bb0a0" d="M 327.5,857.5 C 328.209,858.404 329.209,858.737 330.5,858.5C 325.04,859.737 319.373,860.404 313.5,860.5C 317.985,859.216 322.651,858.216 327.5,857.5 Z"/></g>
<g><path style="opacity:1" fill="#779878" d="M 469.5,862.5 C 448.848,861.614 428.181,861.28 407.5,861.5C 404.615,861.806 401.948,861.473 399.5,860.5C 417.495,859.695 435.495,859.529 453.5,860C 459.025,860.52 464.358,861.353 469.5,862.5 Z"/></g>
<g><path style="opacity:1" fill="#90a692" d="M 399.5,860.5 C 401.948,861.473 404.615,861.806 407.5,861.5C 401.021,862.491 394.354,862.824 387.5,862.5C 391.267,861.205 395.267,860.539 399.5,860.5 Z"/></g>
<g><path style="opacity:1" fill="#6f8c73" d="M 761.5,864.5 C 735.197,862.661 708.864,862.161 682.5,863C 668.668,864.306 655.001,866.472 641.5,869.5C 654.325,864.857 667.659,862.024 681.5,861C 707.57,859.964 733.57,860.631 759.5,863C 760.416,863.278 761.082,863.778 761.5,864.5 Z"/></g>
<g><path style="opacity:1" fill="#214d2f" d="M 105.5,862.5 C 105.011,863.995 104.345,865.329 103.5,866.5C 99.5938,866.533 96.2605,865.199 93.5,862.5C 97.4014,862.142 101.401,862.142 105.5,862.5 Z"/></g>
<g><path style="opacity:1" fill="#385f41" d="M 546.5,850.5 C 553.203,857.895 557.869,866.562 560.5,876.5C 560.5,876.833 560.5,877.167 560.5,877.5C 556.026,869.896 551.526,862.23 547,854.5C 545.702,853.054 545.535,851.721 546.5,850.5 Z"/></g>
<g><path style="opacity:1" fill="#42674a" d="M 31.5,839.5 C 31.1582,848.901 30.1582,858.235 28.5,867.5C 27.7834,873.868 30.45,878.034 36.5,880C 44.2872,882.616 51.2872,885.45 57.5,888.5C 48.0818,886.638 39.0818,883.471 30.5,879C 27.2616,876.855 25.595,873.855 25.5,870C 27.3041,859.659 29.3041,849.493 31.5,839.5 Z"/></g>
<g><path style="opacity:1" fill="#416849" d="M 1110.5,801.5 C 1112.71,803.995 1113.88,806.995 1114,810.5C 1116.89,831.045 1120.05,851.545 1123.5,872C 1123.16,876.019 1121.49,879.352 1118.5,882C 1104.49,890.001 1089.49,895.168 1073.5,897.5C 1084.89,892.868 1096.56,888.701 1108.5,885C 1112.42,883.46 1115.92,881.293 1119,878.5C 1119.67,871.833 1119.67,865.167 1119,858.5C 1115.4,839.568 1112.57,820.568 1110.5,801.5 Z"/></g>
<g><path style="opacity:1" fill="#93a893" d="M 909.5,864.5 C 934.321,866.51 958.987,868.51 983.5,870.5C 966.15,870.06 948.817,869.227 931.5,868C 923.962,867.235 916.628,866.068 909.5,864.5 Z"/></g>
<g><path style="opacity:1" fill="#93a794" d="M 356.5,865.5 C 342.403,868.222 328.07,870.222 313.5,871.5C 312.432,870.566 311.099,870.232 309.5,870.5C 325.017,868.771 340.684,867.105 356.5,865.5 Z"/></g>
<g><path style="opacity:1" fill="#69806b" d="M 105.5,862.5 C 107.952,863.065 110.285,863.732 112.5,864.5C 110.076,864.192 107.743,864.526 105.5,865.5C 106,865.833 106.5,866.167 107,866.5C 114.013,867.582 120.847,868.915 127.5,870.5C 119.681,870.968 112.014,870.135 104.5,868C 103.944,867.617 103.611,867.117 103.5,866.5C 104.345,865.329 105.011,863.995 105.5,862.5 Z"/></g>
<g><path style="opacity:1" fill="#80a184" d="M 130.5,866.5 C 145.492,867.132 160.492,867.465 175.5,867.5C 169.509,868.166 163.343,868.5 157,868.5C 147.947,868.691 139.114,868.024 130.5,866.5 Z"/></g>
<g><path style="opacity:1" fill="#78927c" d="M 1040.5,870.5 C 1038.6,869.195 1036.27,868.529 1033.5,868.5C 1022.2,869.71 1010.86,870.376 999.5,870.5C 1013.32,868.847 1027.32,867.513 1041.5,866.5C 1043.83,866.833 1046.17,867.167 1048.5,867.5C 1046.03,869.071 1043.36,870.071 1040.5,870.5 Z"/></g>
<g><path style="opacity:1" fill="#214a2b" d="M 61.5,871.5 C 61.1667,872.167 60.8333,872.833 60.5,873.5C 58.5286,872.177 56.5286,870.844 54.5,869.5C 56.0437,867.554 58.0437,867.054 60.5,868C 61.8333,868.667 63.1667,869.333 64.5,870C 63.2625,870.232 62.2625,870.732 61.5,871.5 Z"/></g>
<g><path style="opacity:1" fill="#7b927d" d="M 488.5,869.5 C 464.52,868.001 440.52,867.501 416.5,868C 386.088,870.927 355.754,874.427 325.5,878.5C 376.213,868.259 427.546,864.426 479.5,867C 482.678,867.66 485.678,868.493 488.5,869.5 Z"/></g>
<g><path style="opacity:1" fill="#99b49c" d="M 794.5,867.5 C 805.519,868.419 816.519,869.586 827.5,871C 828.416,871.278 829.082,871.778 829.5,872.5C 817.643,871.229 805.976,869.562 794.5,867.5 Z"/></g>
<g><path style="opacity:1" fill="#adc8af" d="M 129.5,870.5 C 139.699,870.428 149.699,871.095 159.5,872.5C 149.301,872.572 139.301,871.905 129.5,870.5 Z"/></g>
<g><path style="opacity:1" fill="#0fbb19" d="M 759.5,846.5 C 764.518,846.613 769.518,846.947 774.5,847.5C 786.298,849.643 798.298,851.31 810.5,852.5C 836.186,855.752 861.853,859.086 887.5,862.5C 894.833,863.167 902.167,863.833 909.5,864.5C 916.628,866.068 923.962,867.235 931.5,868C 948.817,869.227 966.15,870.06 983.5,870.5C 988.833,870.5 994.167,870.5 999.5,870.5C 1010.86,870.376 1022.2,869.71 1033.5,868.5C 1036.27,868.529 1038.6,869.195 1040.5,870.5C 1040.17,870.5 1039.83,870.5 1039.5,870.5C 1024.98,871.774 1010.65,873.441 996.5,875.5C 947.226,875.31 898.226,871.644 849.5,864.5C 838.21,862.576 826.877,860.909 815.5,859.5C 813.524,857.989 811.191,857.156 808.5,857C 790.532,854.504 772.532,852.337 754.5,850.5C 734.902,848.654 715.235,847.987 695.5,848.5C 689.824,848.666 684.157,848.499 678.5,848C 682.749,846.874 687.082,846.208 691.5,846C 714.177,845.296 736.844,845.462 759.5,846.5 Z"/></g>
<g><path style="opacity:1" fill="#7f9781" d="M 247.5,868.5 C 238.101,870.701 228.435,871.868 218.5,872C 206.5,872.5 194.5,873 182.5,873.5C 178.319,873.499 174.319,873.166 170.5,872.5C 196.188,871.707 221.854,870.374 247.5,868.5 Z"/></g>
<g><path style="opacity:1" fill="#a9c9ab" d="M 832.5,872.5 C 837.75,872.302 842.75,872.969 847.5,874.5C 842.269,874.556 837.269,873.889 832.5,872.5 Z"/></g>
<g><path style="opacity:1" fill="#829886" d="M 849.5,864.5 C 898.226,871.644 947.226,875.31 996.5,875.5C 1001.17,875.5 1005.83,875.5 1010.5,875.5C 971.215,877.541 931.881,876.375 892.5,872C 878.899,869.591 865.233,867.591 851.5,866C 850.584,865.722 849.918,865.222 849.5,864.5 Z"/></g>
<g><path style="opacity:1" fill="#5e8163" d="M 1039.5,870.5 C 1034.36,872.303 1029.02,873.803 1023.5,875C 1019.18,875.499 1014.85,875.666 1010.5,875.5C 1005.83,875.5 1001.17,875.5 996.5,875.5C 1010.65,873.441 1024.98,871.774 1039.5,870.5 Z"/></g>
<g><path style="opacity:1" fill="#638068" d="M 309.5,870.5 C 311.099,870.232 312.432,870.566 313.5,871.5C 294.279,874.653 274.945,876.986 255.5,878.5C 273.336,875.396 291.336,872.73 309.5,870.5 Z"/></g>
<g><path style="opacity:1" fill="#6d836e" d="M 508.5,874.5 C 512.244,874.685 515.911,875.352 519.5,876.5C 520.416,876.457 521.083,876.124 521.5,875.5C 524.073,875.148 526.406,875.648 528.5,877C 521.433,878.193 514.767,877.36 508.5,874.5 Z"/></g>
<g><path style="opacity:1" fill="#54745b" d="M 1079.5,880.5 C 1085.15,877.038 1084.49,875.704 1077.5,876.5C 1081.82,872.9 1086.48,872.567 1091.5,875.5C 1087.63,877.565 1083.63,879.231 1079.5,880.5 Z"/></g>
<g><path style="opacity:1" fill="#2c5c38" d="M 645.5,872.5 C 647.667,872.631 647.834,872.964 646,873.5C 637.901,876.067 629.734,878.4 621.5,880.5C 620.833,880.167 620.167,879.833 619.5,879.5C 622.226,874.463 626.226,872.796 631.5,874.5C 636.061,873.189 640.728,872.522 645.5,872.5 Z"/></g>
<g><path style="opacity:1" fill="#97a999" d="M 464.5,879.5 C 448.823,879.45 433.156,879.783 417.5,880.5C 426.448,878.968 435.615,878.302 445,878.5C 451.675,878.5 458.175,878.834 464.5,879.5 Z"/></g>
<g><path style="opacity:1" fill="#596a5e" d="M 721.5,880.5 C 704.167,880.5 686.833,880.5 669.5,880.5C 669.918,879.778 670.584,879.278 671.5,879C 686.5,878.333 701.5,878.333 716.5,879C 718.382,879.198 720.048,879.698 721.5,880.5 Z"/></g>
<g><path style="opacity:1" fill="#6b8472" d="M 412.5,880.5 C 409.797,881.963 406.797,882.796 403.5,883C 397.843,883.499 392.176,883.666 386.5,883.5C 394.85,881.003 403.517,880.003 412.5,880.5 Z"/></g>
<g><path style="opacity:1" fill="#84cf86" d="M 570.5,783.5 C 570.169,810.339 570.502,837.005 571.5,863.5C 571.5,864.5 571.5,865.5 571.5,866.5C 571.5,880.167 571.5,893.833 571.5,907.5C 570.609,906.89 569.609,906.557 568.5,906.5C 568.552,904.097 568.219,901.764 567.5,899.5C 568.934,860.844 569.934,822.177 570.5,783.5 Z"/></g>
<g><path style="opacity:1" fill="#476f4d" d="M 727.5,880.5 C 747.227,881.914 766.894,883.914 786.5,886.5C 784.735,887.461 782.735,887.795 780.5,887.5C 762.58,886.053 744.914,883.719 727.5,880.5 Z"/></g>
<g><path style="opacity:1" fill="#829e86" d="M 663.5,880.5 C 655.671,882.4 647.671,884.067 639.5,885.5C 638.791,884.596 637.791,884.263 636.5,884.5C 645.262,882.431 654.262,881.098 663.5,880.5 Z"/></g>
<g><path style="opacity:1" fill="#3b6342" d="M 832.5,881.5 C 842.219,882.172 851.886,883.172 861.5,884.5C 854.679,885.655 847.679,885.821 840.5,885C 837.689,884.017 835.023,882.851 832.5,881.5 Z"/></g>
<g><path style="opacity:1" fill="#68826b" d="M 307.5,880.5 C 303.183,882.579 298.516,883.746 293.5,884C 278.204,885.96 262.87,887.46 247.5,888.5C 267.241,884.896 287.241,882.23 307.5,880.5 Z"/></g>
<g><path style="opacity:1" fill="#8da291" d="M 1075.5,881.5 C 1069.73,884.863 1063.4,886.863 1056.5,887.5C 1062.49,884.728 1068.82,882.728 1075.5,881.5 Z"/></g>
<g><path style="opacity:1" fill="#35603f" d="M 382.5,884.5 C 373.002,886.729 363.336,888.063 353.5,888.5C 351.585,888.784 349.919,888.451 348.5,887.5C 358.648,886.089 368.814,884.756 379,883.5C 380.385,883.514 381.551,883.848 382.5,884.5 Z"/></g>
<g><path style="opacity:1" fill="#496e50" d="M 504.5,883.5 C 505.274,882.853 506.274,882.52 507.5,882.5C 518.081,884.515 528.414,887.348 538.5,891C 540.584,891.697 542.251,892.864 543.5,894.5C 530.543,890.625 517.543,886.958 504.5,883.5 Z"/></g>
<g><path style="opacity:1" fill="#0dbb18" d="M 407.5,861.5 C 428.181,861.28 448.848,861.614 469.5,862.5C 480.914,863.714 492.248,865.547 503.5,868C 509.862,869.907 515.862,872.407 521.5,875.5C 521.083,876.124 520.416,876.457 519.5,876.5C 515.911,875.352 512.244,874.685 508.5,874.5C 502.173,871.918 495.507,870.252 488.5,869.5C 485.678,868.493 482.678,867.66 479.5,867C 427.546,864.426 376.213,868.259 325.5,878.5C 319.5,879.167 313.5,879.833 307.5,880.5C 287.241,882.23 267.241,884.896 247.5,888.5C 246.167,888.5 244.833,888.5 243.5,888.5C 222.17,889.5 200.837,890.5 179.5,891.5C 167.5,891 155.5,890.5 143.5,890C 129.511,888.301 115.511,886.801 101.5,885.5C 87.721,882.3 74.0544,878.3 60.5,873.5C 60.8333,872.833 61.1667,872.167 61.5,871.5C 65.9062,871.748 70.2396,872.415 74.5,873.5C 83.9509,877.694 93.9509,880.028 104.5,880.5C 106.764,881.219 109.097,881.552 111.5,881.5C 120.213,883.79 129.213,884.956 138.5,885C 153.672,885.828 168.672,885.661 183.5,884.5C 185.167,884.5 186.833,884.5 188.5,884.5C 204.124,884.869 219.458,883.536 234.5,880.5C 241.517,879.935 248.517,879.268 255.5,878.5C 274.945,876.986 294.279,874.653 313.5,871.5C 328.07,870.222 342.403,868.222 356.5,865.5C 366.854,864.68 377.188,863.68 387.5,862.5C 394.354,862.824 401.021,862.491 407.5,861.5 Z"/></g>
<g><path style="opacity:1" fill="#799279" d="M 234.5,880.5 C 219.458,883.536 204.124,884.869 188.5,884.5C 203.61,882.323 218.944,880.99 234.5,880.5 Z"/></g>
<g><path style="opacity:1" fill="#768d77" d="M 111.5,881.5 C 135.427,883.965 159.427,884.965 183.5,884.5C 168.672,885.661 153.672,885.828 138.5,885C 129.213,884.956 120.213,883.79 111.5,881.5 Z"/></g>
<g><path style="opacity:1" fill="#718b76" d="M 74.5,873.5 C 84.1043,875.546 93.771,877.379 103.5,879C 104.056,879.383 104.389,879.883 104.5,880.5C 93.9509,880.028 83.9509,877.694 74.5,873.5 Z"/></g>
<g><path style="opacity:1" fill="#11bb1b" d="M 761.5,864.5 C 772.542,865.134 783.542,866.134 794.5,867.5C 805.976,869.562 817.643,871.229 829.5,872.5C 830.5,872.5 831.5,872.5 832.5,872.5C 837.269,873.889 842.269,874.556 847.5,874.5C 873.315,879.045 899.315,882.378 925.5,884.5C 928.577,885.856 931.91,886.689 935.5,887C 946.828,887.5 958.162,887.667 969.5,887.5C 990.169,887.667 1010.84,887.5 1031.5,887C 1034.38,886.454 1037.05,885.621 1039.5,884.5C 1052.51,883.332 1065.18,880.666 1077.5,876.5C 1084.49,875.704 1085.15,877.038 1079.5,880.5C 1077.9,880.232 1076.57,880.566 1075.5,881.5C 1068.82,882.728 1062.49,884.728 1056.5,887.5C 1054.1,887.448 1051.76,887.781 1049.5,888.5C 1005,894.851 960.329,896.184 915.5,892.5C 915.167,892.5 914.833,892.5 914.5,892.5C 905.76,890.418 896.76,889.418 887.5,889.5C 882.349,888.673 877.016,888.173 871.5,888C 867.991,887.129 864.658,885.963 861.5,884.5C 851.886,883.172 842.219,882.172 832.5,881.5C 808.248,877.774 783.915,874.274 759.5,871C 741.874,869.088 724.207,867.921 706.5,867.5C 698.932,866.188 691.265,866.188 683.5,867.5C 678.897,868.383 674.23,868.717 669.5,868.5C 666.15,868.335 662.817,868.502 659.5,869C 658.263,869.232 657.263,869.732 656.5,870.5C 652.575,870.43 648.909,871.097 645.5,872.5C 640.728,872.522 636.061,873.189 631.5,874.5C 633.928,871.362 637.261,869.695 641.5,869.5C 655.001,866.472 668.668,864.306 682.5,863C 708.864,862.161 735.197,862.661 761.5,864.5 Z"/></g>
<g><path style="opacity:1" fill="#7a8f7e" d="M 1039.5,884.5 C 1037.05,885.621 1034.38,886.454 1031.5,887C 1010.84,887.5 990.169,887.667 969.5,887.5C 969.5,887.167 969.5,886.833 969.5,886.5C 992.864,886.722 1016.2,886.055 1039.5,884.5 Z"/></g>
<g><path style="opacity:1" fill="#638168" d="M 925.5,884.5 C 940.167,885.167 954.833,885.833 969.5,886.5C 969.5,886.833 969.5,887.167 969.5,887.5C 958.162,887.667 946.828,887.5 935.5,887C 931.91,886.689 928.577,885.856 925.5,884.5 Z"/></g>
<g><path style="opacity:1" fill="#7f9583" d="M 669.5,868.5 C 665.409,869.895 661.076,870.562 656.5,870.5C 657.263,869.732 658.263,869.232 659.5,869C 662.817,868.502 666.15,868.335 669.5,868.5 Z"/></g>
<g><path style="opacity:1" fill="#7b987a" d="M 706.5,867.5 C 698.662,868.251 690.995,868.251 683.5,867.5C 691.265,866.188 698.932,866.188 706.5,867.5 Z"/></g>
<g><path style="opacity:1" fill="#78927c" d="M 101.5,885.5 C 115.511,886.801 129.511,888.301 143.5,890C 155.5,890.5 167.5,891 179.5,891.5C 200.837,890.5 222.17,889.5 243.5,888.5C 243.082,889.222 242.416,889.722 241.5,890C 209.53,892.148 177.53,892.814 145.5,892C 133.455,891.062 121.455,889.729 109.5,888C 106.543,887.721 103.877,886.887 101.5,885.5 Z"/></g>
<g><path style="opacity:1" fill="#6e8e73" d="M 561.5,879.5 C 562.167,880.167 562.833,880.833 563.5,881.5C 564.961,887.473 566.295,893.473 567.5,899.5C 568.219,901.764 568.552,904.097 568.5,906.5C 568.144,908.19 567.144,909.19 565.5,909.5C 563.833,907.5 562.167,905.5 560.5,903.5C 562.258,903.877 563.925,904.544 565.5,905.5C 565.833,904.333 566.167,903.167 566.5,902C 564.595,894.546 562.928,887.046 561.5,879.5 Z"/></g>
<g><path style="opacity:1" fill="#426749" d="M 623.5,832.5 C 600.254,851.314 586.587,875.647 582.5,905.5C 583.873,905.657 585.207,905.49 586.5,905C 601.676,894.58 618.343,887.747 636.5,884.5C 637.791,884.263 638.791,884.596 639.5,885.5C 629.53,888.327 619.53,891.16 609.5,894C 600.354,898.995 591.354,904.161 582.5,909.5C 582.5,908.833 582.5,908.167 582.5,907.5C 581.425,906.287 580.759,904.787 580.5,903C 580.917,900.502 581.251,898.002 581.5,895.5C 581.971,893.421 582.637,891.421 583.5,889.5C 585.348,883.772 587.348,878.106 589.5,872.5C 596.629,856.865 606.962,843.699 620.5,833C 621.448,832.517 622.448,832.351 623.5,832.5 Z"/></g>
<g><path style="opacity:1" fill="#869f89" d="M 887.5,889.5 C 896.76,889.418 905.76,890.418 914.5,892.5C 903.456,892.206 892.456,891.372 881.5,890C 883.473,889.505 885.473,889.338 887.5,889.5 Z"/></g>
<g><path style="opacity:1" fill="#7a927e" d="M 786.5,886.5 C 806.88,890.381 827.213,893.714 847.5,896.5C 839.459,896.664 831.459,896.164 823.5,895C 809.162,891.756 794.828,889.256 780.5,887.5C 782.735,887.795 784.735,887.461 786.5,886.5 Z"/></g>
<g><path style="opacity:1" fill="#618064" d="M 348.5,887.5 C 349.919,888.451 351.585,888.784 353.5,888.5C 336.34,891.146 319.007,893.48 301.5,895.5C 303.734,893.554 306.401,892.387 309.5,892C 322.519,890.581 335.519,889.081 348.5,887.5 Z"/></g>
<g><path style="opacity:1" fill="#95bd98" d="M 571.5,866.5 C 572.947,875.963 573.613,885.63 573.5,895.5C 572.517,899.298 572.183,903.298 572.5,907.5C 572.167,907.5 571.833,907.5 571.5,907.5C 571.5,893.833 571.5,880.167 571.5,866.5 Z"/></g>
<g><path style="opacity:1" fill="#7e9281" d="M 1049.5,888.5 C 1047.85,889.927 1045.85,890.76 1043.5,891C 1000.72,897.616 958.052,898.116 915.5,892.5C 960.329,896.184 1005,894.851 1049.5,888.5 Z"/></g>
<g><path style="opacity:1" fill="#5d8065" d="M 278.5,898.5 C 263.864,899.942 249.197,901.275 234.5,902.5C 233.508,902.672 232.842,902.338 232.5,901.5C 247.894,898.795 263.228,897.795 278.5,898.5 Z"/></g>
<g><path style="opacity:1" fill="#497052" d="M 1071.5,898.5 C 1065.22,901.281 1058.55,902.948 1051.5,903.5C 1050.21,903.737 1049.21,903.404 1048.5,902.5C 1056.17,901.166 1063.84,899.832 1071.5,898.5 Z"/></g>
<g><path style="opacity:1" fill="#406749" d="M 913.5,903.5 C 911.735,904.461 909.735,904.795 907.5,904.5C 889.175,903.663 871.175,901.33 853.5,897.5C 857.311,896.355 861.311,896.188 865.5,897C 881.287,900.708 897.287,902.874 913.5,903.5 Z"/></g>
<g><path style="opacity:1" fill="#5c7b62" d="M 86.5,897.5 C 94.6088,898.36 102.609,899.86 110.5,902C 117.867,902.273 125.2,902.773 132.5,903.5C 129.375,904.479 126.042,904.813 122.5,904.5C 109.964,904.36 97.9644,902.027 86.5,897.5 Z"/></g>
<g><path style="opacity:1" fill="#8b978a" d="M 232.5,901.5 C 232.842,902.338 233.508,902.672 234.5,902.5C 226.717,903.993 218.717,904.826 210.5,905C 180.997,905.83 151.664,905.664 122.5,904.5C 126.042,904.813 129.375,904.479 132.5,903.5C 165.891,905.241 199.224,904.574 232.5,901.5 Z"/></g>
<g><path style="opacity:1" fill="#7f9d80" d="M 913.5,903.5 C 921.077,903.696 928.411,904.696 935.5,906.5C 925.981,906.323 916.648,905.656 907.5,904.5C 909.735,904.795 911.735,904.461 913.5,903.5 Z"/></g>
<g><path style="opacity:1" fill="#85b887" d="M 578.5,815.5 C 578.836,842.349 579.836,869.016 581.5,895.5C 581.251,898.002 580.917,900.502 580.5,903C 580.759,904.787 581.425,906.287 582.5,907.5C 579.819,907.462 577.319,908.129 575,909.5C 574.235,909.43 573.735,909.097 573.5,908.5C 574.931,908.119 575.764,907.119 576,905.5C 576.667,900.167 577.333,894.833 578,889.5C 578.5,864.836 578.667,840.169 578.5,815.5 Z"/></g>
<g><path style="opacity:1" fill="#819384" d="M 1048.5,902.5 C 1049.21,903.404 1050.21,903.737 1051.5,903.5C 1021.14,908.597 990.478,910.263 959.5,908.5C 959.5,908.167 959.5,907.833 959.5,907.5C 989.345,908.594 1019.01,906.928 1048.5,902.5 Z"/></g>
<g><path style="opacity:1" fill="#9aba98" d="M 940.5,906.5 C 946.863,906.407 953.196,906.74 959.5,907.5C 959.5,907.833 959.5,908.167 959.5,908.5C 952.95,908.546 946.617,907.879 940.5,906.5 Z"/></g>
<g><path style="opacity:1" fill="#40c341" d="M 568.5,906.5 C 569.609,906.557 570.609,906.89 571.5,907.5C 571.833,907.5 572.167,907.5 572.5,907.5C 572.5,908.167 572.833,908.5 573.5,908.5C 573.735,909.097 574.235,909.43 575,909.5C 577.319,908.129 579.819,907.462 582.5,907.5C 582.5,908.167 582.5,908.833 582.5,909.5C 580.754,912.409 578.254,914.409 575,915.5C 571.322,913.124 568.155,911.124 565.5,909.5C 567.144,909.19 568.144,908.19 568.5,906.5 Z"/></g>
<g><path style="opacity:1" fill="#0fcc0c" d="M 743.5,1123.5 C 748.544,1123.83 753.544,1123.49 758.5,1122.5C 758.376,1121.89 758.043,1121.56 757.5,1121.5C 753.971,1110.08 750.137,1098.75 746,1087.5C 730.897,1086.18 715.73,1086.18 700.5,1087.5C 696.168,1096.5 692.835,1105.83 690.5,1115.5C 690.404,1117.93 691.07,1120.09 692.5,1122C 696.026,1123.34 699.692,1123.84 703.5,1123.5C 703.5,1125.5 703.5,1127.5 703.5,1129.5C 689.833,1129.5 676.167,1129.5 662.5,1129.5C 662.5,1127.5 662.5,1125.5 662.5,1123.5C 667.795,1123.54 672.795,1122.37 677.5,1120C 678.211,1118.75 679.044,1117.58 680,1116.5C 695.611,1076.94 710.944,1037.28 726,997.5C 728.795,996.217 731.628,996.217 734.5,997.5C 749.766,1039.3 764.433,1081.3 778.5,1123.5C 783.167,1123.5 787.833,1123.5 792.5,1123.5C 792.5,1125.5 792.5,1127.5 792.5,1129.5C 776.167,1129.5 759.833,1129.5 743.5,1129.5C 743.5,1127.5 743.5,1125.5 743.5,1123.5 Z"/></g>
<g><path style="opacity:1" fill="#19cd15" d="M 1003.5,996.5 C 1015.97,996.636 1022.64,1002.97 1023.5,1015.5C 1021.21,1028.74 1014.04,1038.4 1002,1044.5C 999.812,1043.94 999.146,1042.61 1000,1040.5C 1008.57,1035.45 1013.74,1028.11 1015.5,1018.5C 1008.71,1019.52 1002.54,1018.18 997,1014.5C 993.888,1006.42 996.055,1000.42 1003.5,996.5 Z"/></g>
<g><path style="opacity:1" fill="#070707" d="M 12.5,1123.5 C 18.5,1123.5 24.5,1123.5 30.5,1123.5C 30.5,1084.17 30.5,1044.83 30.5,1005.5C 24.5,1005.5 18.5,1005.5 12.5,1005.5C 12.5,1003.83 12.5,1002.17 12.5,1000.5C 36.169,1000.33 59.8357,1000.5 83.5,1001C 111.514,1005.35 128.014,1021.51 133,1049.5C 138.483,1080.34 128.649,1104.84 103.5,1123C 98.4657,1125.79 93.1323,1127.79 87.5,1129C 62.5022,1129.5 37.5022,1129.67 12.5,1129.5C 12.5,1127.5 12.5,1125.5 12.5,1123.5 Z"/></g>
<g><path style="opacity:1" fill="#000000" d="M 608.5,1129.5 C 608.5,1127.83 608.5,1126.17 608.5,1124.5C 613.032,1124.82 617.366,1124.48 621.5,1123.5C 622.117,1123.39 622.617,1123.06 623,1122.5C 623.667,1084.83 623.667,1047.17 623,1009.5C 622.5,1007.67 621.333,1006.5 619.5,1006C 615.848,1005.5 612.182,1005.33 608.5,1005.5C 608.5,1003.83 608.5,1002.17 608.5,1000.5C 618.5,1000.5 628.5,1000.5 638.5,1000.5C 638.333,1040.83 638.5,1081.17 639,1121.5C 639.5,1122.67 640.333,1123.5 641.5,1124C 645.486,1124.5 649.486,1124.67 653.5,1124.5C 653.5,1126.17 653.5,1127.83 653.5,1129.5C 638.5,1129.5 623.5,1129.5 608.5,1129.5 Z"/></g>
<g><path style="opacity:1" fill="#070707" d="M 166.5,1004.5 C 179.329,1004.17 183.163,1009.83 178,1021.5C 166.079,1027.38 160.412,1023.71 161,1010.5C 162.36,1007.98 164.193,1005.98 166.5,1004.5 Z"/></g>
<g><path style="opacity:1" fill="#090909" d="M 375.5,1004.5 C 387.365,1003.19 391.865,1008.19 389,1019.5C 382.89,1026 376.89,1026 371,1019.5C 369.578,1016.97 369.245,1014.3 370,1011.5C 371.666,1009 373.5,1006.67 375.5,1004.5 Z"/></g>
<g><path style="opacity:1" fill="#b7b7b7" d="M 12.5,1005.5 C 18.5,1005.5 24.5,1005.5 30.5,1005.5C 30.5,1044.83 30.5,1084.17 30.5,1123.5C 24.5,1123.5 18.5,1123.5 12.5,1123.5C 17.9753,1122.51 23.642,1122.18 29.5,1122.5C 29.5,1083.83 29.5,1045.17 29.5,1006.5C 23.642,1006.82 17.9753,1006.49 12.5,1005.5 Z"/></g>
<g><path style="opacity:1" fill="#fdfdfd" d="M 51.5,1005.5 C 60.8393,1005.33 70.1726,1005.5 79.5,1006C 95.2413,1008.41 105.408,1017.24 110,1032.5C 116.255,1054.65 115.922,1076.65 109,1098.5C 103.251,1112.92 92.7513,1121.42 77.5,1124C 67.481,1124.67 57.481,1124.5 47.5,1123.5C 47.5,1084.5 47.5,1045.5 47.5,1006.5C 49.099,1006.77 50.4324,1006.43 51.5,1005.5 Z"/></g>
<g><path style="opacity:1" fill="#fbfefb" d="M 742.5,1078.5 C 729.656,1078.83 716.989,1078.5 704.5,1077.5C 711.062,1060.05 717.895,1042.71 725,1025.5C 730.944,1043.16 736.777,1060.83 742.5,1078.5 Z"/></g>
<g><path style="opacity:1" fill="#030303" d="M 435.5,1128.5 C 435.44,1127.96 435.107,1127.62 434.5,1127.5C 433.501,1137.48 433.168,1147.48 433.5,1157.5C 433.103,1162.96 433.603,1168.29 435,1173.5C 439.401,1174.47 443.901,1174.8 448.5,1174.5C 448.5,1176.17 448.5,1177.83 448.5,1179.5C 433.167,1179.5 417.833,1179.5 402.5,1179.5C 402.5,1177.83 402.5,1176.17 402.5,1174.5C 406.846,1174.67 411.179,1174.5 415.5,1174C 416.333,1173.17 417.167,1172.33 418,1171.5C 418.667,1132.17 418.667,1092.83 418,1053.5C 417.252,1051.25 415.752,1049.92 413.5,1049.5C 410.375,1048.52 407.042,1048.19 403.5,1048.5C 403.5,1046.83 403.5,1045.17 403.5,1043.5C 413.5,1043.5 423.5,1043.5 433.5,1043.5C 433.334,1049.84 433.5,1056.18 434,1062.5C 434.717,1061.96 435.217,1061.29 435.5,1060.5C 448.387,1042.19 465.387,1037.02 486.5,1045C 502.355,1057.54 507.521,1073.71 502,1093.5C 490.806,1126.18 468.639,1137.85 435.5,1128.5 Z"/></g>
<g><path style="opacity:1" fill="#080808" d="M 552.5,1041.5 C 589.518,1040.68 606.352,1058.68 603,1095.5C 597.307,1116.19 583.807,1128.02 562.5,1131C 535.867,1133.03 520.367,1120.87 516,1094.5C 513.522,1066.51 525.688,1048.85 552.5,1041.5 Z"/></g>
<g><path style="opacity:1" fill="#070707" d="M 209.5,1129.5 C 208.167,1129.5 206.833,1129.5 205.5,1129.5C 205.5,1119.5 205.5,1109.5 205.5,1099.5C 207.167,1099.5 208.833,1099.5 210.5,1099.5C 210.802,1111.31 216.469,1119.48 227.5,1124C 237.227,1126.21 245.727,1124.05 253,1117.5C 256.671,1109.12 254.504,1102.95 246.5,1099C 234.81,1095.11 223.477,1090.44 212.5,1085C 204.884,1078.15 202.384,1069.65 205,1059.5C 208.426,1051.69 214.259,1046.52 222.5,1044C 227.269,1042.77 232.103,1041.93 237,1041.5C 243.688,1042 250.188,1043.34 256.5,1045.5C 256.5,1044.5 256.5,1043.5 256.5,1042.5C 258.167,1042.5 259.833,1042.5 261.5,1042.5C 261.5,1050.83 261.5,1059.17 261.5,1067.5C 259.5,1067.5 257.5,1067.5 255.5,1067.5C 256.568,1057.71 252.235,1051.54 242.5,1049C 237.167,1048.33 231.833,1048.33 226.5,1049C 216.962,1053.76 214.962,1060.76 220.5,1070C 230.94,1074.89 241.606,1079.22 252.5,1083C 266.172,1087.84 271.339,1097.34 268,1111.5C 263.275,1121.63 255.442,1128.13 244.5,1131C 233.114,1132.78 222.28,1131.28 212,1126.5C 210.69,1127.13 209.856,1128.13 209.5,1129.5 Z"/></g>
<g><path style="opacity:1" fill="#060606" d="M 313.5,1042.5 C 320.175,1042.33 326.842,1042.5 333.5,1043C 346.282,1046.08 350.449,1053.58 346,1065.5C 340.598,1069.43 335.264,1069.43 330,1065.5C 329.333,1064.17 329.333,1062.83 330,1061.5C 336.001,1059.01 336.834,1055.51 332.5,1051C 313.393,1047.31 300.893,1054.81 295,1073.5C 293.11,1086.38 295.444,1098.38 302,1109.5C 315.017,1122.79 329.85,1125.12 346.5,1116.5C 349.105,1118.24 349.105,1120.07 346.5,1122C 335.11,1130.14 322.444,1132.81 308.5,1130C 284.384,1121.29 274.55,1104.12 279,1078.5C 284.281,1060.39 295.781,1048.39 313.5,1042.5 Z"/></g>
<g><path style="opacity:1" fill="#10cd0d" d="M 842.5,1041.5 C 866.07,1038.36 880.236,1048.36 885,1071.5C 887.029,1093.77 879.196,1111.6 861.5,1125C 846.702,1133.51 831.369,1134.68 815.5,1128.5C 815.333,1142.84 815.5,1157.17 816,1171.5C 816.374,1172.42 816.874,1173.25 817.5,1174C 821.821,1174.5 826.154,1174.67 830.5,1174.5C 830.5,1176.17 830.5,1177.83 830.5,1179.5C 814.833,1179.5 799.167,1179.5 783.5,1179.5C 783.5,1177.83 783.5,1176.17 783.5,1174.5C 787.846,1174.67 792.179,1174.5 796.5,1174C 797.667,1173.5 798.5,1172.67 799,1171.5C 799.667,1131.83 799.667,1092.17 799,1052.5C 798.167,1051.67 797.333,1050.83 796.5,1050C 792.514,1049.5 788.514,1049.33 784.5,1049.5C 784.5,1047.5 784.5,1045.5 784.5,1043.5C 794.833,1043.5 805.167,1043.5 815.5,1043.5C 815.334,1049.51 815.501,1055.51 816,1061.5C 822.434,1051.55 831.268,1044.88 842.5,1041.5 Z"/></g>
<g><path style="opacity:1" fill="#12cc0e" d="M 939.5,1041.5 C 961.336,1038.33 975.169,1047.33 981,1068.5C 984.461,1092.83 976.294,1111.99 956.5,1126C 942.556,1133.7 928.222,1134.53 913.5,1128.5C 912.334,1143.16 912.167,1157.82 913,1172.5C 913.5,1173 914,1173.5 914.5,1174C 918.821,1174.5 923.154,1174.67 927.5,1174.5C 927.5,1176.17 927.5,1177.83 927.5,1179.5C 911.833,1179.5 896.167,1179.5 880.5,1179.5C 880.5,1177.83 880.5,1176.17 880.5,1174.5C 884.846,1174.67 889.179,1174.5 893.5,1174C 894.701,1173.1 895.535,1171.93 896,1170.5C 896.667,1131.5 896.667,1092.5 896,1053.5C 895.535,1052.07 894.701,1050.9 893.5,1050C 889.179,1049.5 884.846,1049.33 880.5,1049.5C 880.5,1047.5 880.5,1045.5 880.5,1043.5C 891.167,1043.5 901.833,1043.5 912.5,1043.5C 912.334,1049.18 912.501,1054.84 913,1060.5C 919.484,1050.85 928.318,1044.51 939.5,1041.5 Z"/></g>
<g><path style="opacity:1" fill="#000000" d="M 148.5,1044.5 C 158.5,1044.5 168.5,1044.5 178.5,1044.5C 178.169,1070.34 178.502,1096.01 179.5,1121.5C 179.953,1122.46 180.619,1123.29 181.5,1124C 185.486,1124.5 189.486,1124.67 193.5,1124.5C 193.5,1126.17 193.5,1127.83 193.5,1129.5C 178.5,1129.5 163.5,1129.5 148.5,1129.5C 148.5,1127.83 148.5,1126.17 148.5,1124.5C 152.846,1124.67 157.179,1124.5 161.5,1124C 162,1123.5 162.5,1123 163,1122.5C 163.667,1098.83 163.667,1075.17 163,1051.5C 162.5,1050.33 161.667,1049.5 160.5,1049C 156.514,1048.5 152.514,1048.33 148.5,1048.5C 148.5,1047.17 148.5,1045.83 148.5,1044.5 Z"/></g>
<g><path style="opacity:1" fill="#707070" d="M 148.5,1044.5 C 158.653,1043.51 168.986,1043.17 179.5,1043.5C 179.5,1069.5 179.5,1095.5 179.5,1121.5C 178.502,1096.01 178.169,1070.34 178.5,1044.5C 168.5,1044.5 158.5,1044.5 148.5,1044.5 Z"/></g>
<g><path style="opacity:1" fill="#020202" d="M 358.5,1043.5 C 368.5,1043.5 378.5,1043.5 388.5,1043.5C 388.333,1069.84 388.5,1096.17 389,1122.5C 389.5,1123 390,1123.5 390.5,1124C 394.821,1124.5 399.154,1124.67 403.5,1124.5C 403.5,1126.17 403.5,1127.83 403.5,1129.5C 388.5,1129.5 373.5,1129.5 358.5,1129.5C 358.5,1127.83 358.5,1126.17 358.5,1124.5C 362.514,1124.67 366.514,1124.5 370.5,1124C 371.333,1123.17 372.167,1122.33 373,1121.5C 373.667,1098.5 373.667,1075.5 373,1052.5C 372.623,1051.06 371.79,1050.06 370.5,1049.5C 366.702,1048.52 362.702,1048.18 358.5,1048.5C 358.5,1046.83 358.5,1045.17 358.5,1043.5 Z"/></g>
<g><path style="opacity:1" fill="#1acd15" d="M 1060.5,1041.5 C 1069.48,1040.89 1078.15,1042.22 1086.5,1045.5C 1087.39,1044.68 1087.72,1043.68 1087.5,1042.5C 1089.5,1042.5 1091.5,1042.5 1093.5,1042.5C 1093.5,1050.83 1093.5,1059.17 1093.5,1067.5C 1091.5,1067.5 1089.5,1067.5 1087.5,1067.5C 1086.41,1053.93 1078.91,1047.6 1065,1048.5C 1053.08,1048.09 1047.75,1053.75 1049,1065.5C 1050.12,1067.62 1051.62,1069.46 1053.5,1071C 1062.01,1074.73 1070.68,1078.06 1079.5,1081C 1085.41,1083.53 1090.91,1086.7 1096,1090.5C 1103.71,1106.39 1099.87,1118.89 1084.5,1128C 1070.95,1132.75 1057.45,1132.58 1044,1127.5C 1041.58,1129.4 1038.75,1130.4 1035.5,1130.5C 1035.5,1120.17 1035.5,1109.83 1035.5,1099.5C 1037.5,1099.5 1039.5,1099.5 1041.5,1099.5C 1041.86,1111.71 1047.86,1119.87 1059.5,1124C 1067.35,1125.4 1074.68,1124.07 1081.5,1120C 1087.52,1114.25 1087.86,1108.25 1082.5,1102C 1070.62,1096.81 1058.62,1091.81 1046.5,1087C 1035.17,1078.97 1032.34,1068.47 1038,1055.5C 1043.86,1048.13 1051.36,1043.46 1060.5,1041.5 Z"/></g>
<g><path style="opacity:1" fill="#808080" d="M 358.5,1043.5 C 358.5,1045.17 358.5,1046.83 358.5,1048.5C 362.702,1048.18 366.702,1048.52 370.5,1049.5C 366.167,1049.5 361.833,1049.5 357.5,1049.5C 357.205,1047.26 357.539,1045.26 358.5,1043.5 Z"/></g>
<g><path style="opacity:1" fill="#6e6e6e" d="M 403.5,1043.5 C 403.5,1045.17 403.5,1046.83 403.5,1048.5C 407.042,1048.19 410.375,1048.52 413.5,1049.5C 409.833,1049.5 406.167,1049.5 402.5,1049.5C 402.205,1047.26 402.539,1045.26 403.5,1043.5 Z"/></g>
<g><path style="opacity:1" fill="#fcfcfc" d="M 549.5,1048.5 C 563.208,1045.78 573.375,1050.45 580,1062.5C 586.593,1076.21 588.259,1090.54 585,1105.5C 578.81,1124.51 566.643,1129.67 548.5,1121C 542.217,1116.27 538.05,1110.1 536,1102.5C 530.729,1087.18 531.396,1072.18 538,1057.5C 541.161,1053.49 544.994,1050.49 549.5,1048.5 Z"/></g>
<g><path style="opacity:1" fill="#747474" d="M 433.5,1043.5 C 434.167,1049.17 434.833,1054.83 435.5,1060.5C 435.217,1061.29 434.717,1061.96 434,1062.5C 433.5,1056.18 433.334,1049.84 433.5,1043.5 Z"/></g>
<g><path style="opacity:1" fill="#fcfcfc" d="M 457.5,1053.5 C 472.472,1052.4 481.972,1059.07 486,1073.5C 489.09,1086.48 487.424,1098.82 481,1110.5C 469.086,1123.88 455.253,1126.04 439.5,1117C 438,1115.5 436.5,1114 435,1112.5C 434.833,1105.67 434.667,1098.83 434.5,1092C 434.366,1084.4 434.866,1076.9 436,1069.5C 441.754,1062.06 448.921,1056.73 457.5,1053.5 Z"/></g>
<g><path style="opacity:1" fill="#fcfefc" d="M 839.5,1053.5 C 855.359,1053.19 864.859,1060.85 868,1076.5C 870.525,1090.06 867.858,1102.39 860,1113.5C 851.361,1121.87 841.194,1124.37 829.5,1121C 815.993,1115.8 811.327,1105.96 815.5,1091.5C 815.667,1084.83 815.833,1078.17 816,1071.5C 822.307,1063.34 830.14,1057.34 839.5,1053.5 Z"/></g>
<g><path style="opacity:1" fill="#fdfefd" d="M 935.5,1053.5 C 948.93,1052.46 958.096,1058.12 963,1070.5C 967.162,1084.4 965.829,1097.73 959,1110.5C 949.473,1121.9 937.639,1125.07 923.5,1120C 919.56,1118.11 916.06,1115.61 913,1112.5C 912.333,1098.83 912.333,1085.17 913,1071.5C 919.159,1063.69 926.659,1057.69 935.5,1053.5 Z"/></g>
<g><path style="opacity:1" fill="#bdf1bf" d="M 704.5,1077.5 C 716.989,1078.5 729.656,1078.83 742.5,1078.5C 729.661,1079.83 716.661,1079.83 703.5,1078.5C 703.624,1077.89 703.957,1077.56 704.5,1077.5 Z"/></g>
<g><path style="opacity:1" fill="#404040" d="M 205.5,1099.5 C 205.5,1109.5 205.5,1119.5 205.5,1129.5C 206.833,1129.5 208.167,1129.5 209.5,1129.5C 208.081,1130.45 206.415,1130.78 204.5,1130.5C 204.172,1119.99 204.506,1109.65 205.5,1099.5 Z"/></g>
<g><path style="opacity:1" fill="#b9f1ba" d="M 757.5,1121.5 C 758.043,1121.56 758.376,1121.89 758.5,1122.5C 753.544,1123.49 748.544,1123.83 743.5,1123.5C 748.167,1122.83 752.833,1122.17 757.5,1121.5 Z"/></g>
<g><path style="opacity:1" fill="#7f7f7f" d="M 621.5,1123.5 C 617.366,1124.48 613.032,1124.82 608.5,1124.5C 608.5,1126.17 608.5,1127.83 608.5,1129.5C 607.539,1127.74 607.205,1125.74 607.5,1123.5C 612.167,1123.5 616.833,1123.5 621.5,1123.5 Z"/></g>
<g><path style="opacity:1" fill="#6d6d6d" d="M 435.5,1128.5 C 434.833,1138.17 434.167,1147.83 433.5,1157.5C 433.168,1147.48 433.501,1137.48 434.5,1127.5C 435.107,1127.62 435.44,1127.96 435.5,1128.5 Z"/></g>
</svg>
